<?xml version="1.0" standalone="no"?>
<!DOCTYPE svg PUBLIC "-//W3C//DTD SVG 1.1//EN" "http://www.w3.org/Graphics/SVG/1.1/DTD/svg11.dtd" >
<svg xmlns="http://www.w3.org/2000/svg">
<metadata>
Created by FontForge 20120731 at Tue Oct 18 18:47:38 2016
 By admin
</metadata>
<defs>
<font id="iconfont" horiz-adv-x="1024" >
  <font-face 
    font-family="iconfont"
    font-weight="500"
    font-stretch="normal"
    units-per-em="1024"
    panose-1="2 0 6 3 0 0 0 0 0 0"
    ascent="896"
    descent="-128"
    x-height="792"
    bbox="-34.0588 -212 3242 896"
    underline-thickness="50"
    underline-position="-100"
    unicode-range="U+0078-E7B1"
  />
<missing-glyph horiz-adv-x="374" 
d="M34 0v682h272v-682h-272zM68 34h204v614h-204v-614z" />
    <glyph glyph-name=".notdef" horiz-adv-x="374" 
d="M34 0v682h272v-682h-272zM68 34h204v614h-204v-614z" />
    <glyph glyph-name=".null" horiz-adv-x="0" 
 />
    <glyph glyph-name="nonmarkingreturn" horiz-adv-x="341" 
 />
    <glyph glyph-name="x" unicode="x" horiz-adv-x="1001" 
d="M281 543q-27 -1 -53 -1h-83q-18 0 -36.5 -6t-32.5 -18.5t-23 -32t-9 -45.5v-76h912v41q0 16 -0.5 30t-0.5 18q0 13 -5 29t-17 29.5t-31.5 22.5t-49.5 9h-133v-97h-438v97zM955 310v-52q0 -23 0.5 -52t0.5 -58t-10.5 -47.5t-26 -30t-33 -16t-31.5 -4.5q-14 -1 -29.5 -0.5
t-29.5 0.5h-32l-45 128h-439l-44 -128h-29h-34q-20 0 -45 1q-25 0 -41 9.5t-25.5 23t-13.5 29.5t-4 30v167h911zM163 247q-12 0 -21 -8.5t-9 -21.5t9 -21.5t21 -8.5q13 0 22 8.5t9 21.5t-9 21.5t-22 8.5zM316 123q-8 -26 -14 -48q-5 -19 -10.5 -37t-7.5 -25t-3 -15t1 -14.5
t9.5 -10.5t21.5 -4h37h67h81h80h64h36q23 0 34 12t2 38q-5 13 -9.5 30.5t-9.5 34.5q-5 19 -11 39h-368zM336 498v228q0 11 2.5 23t10 21.5t20.5 15.5t34 6h188q31 0 51.5 -14.5t20.5 -52.5v-227h-327z" />
    <glyph glyph-name="uniE600" unicode="&#xe600;" horiz-adv-x="1689" 
d="M451 283q-1 -3 -6 -16q-5 -14 -11 -35q-7 -22 -14 -47q-8 -27 -16 -52q-9 -28 -16 -53q-7 -24 -13 -47q-5 -17 -10 -35q-4 -14 -5 -16q-2 -9 -7 -19t-11.5 -19t-14.5 -15t-16 -6q-14 0 -20.5 9t-6.5 35v7v8q1 8 7 31t15 52q8 29 18 60q10 32 18 55q-23 -26 -50.5 -51.5
t-56 -46.5t-57.5 -34t-56 -13q-31 0 -53.5 14t-37 35.5t-21.5 49.5t-7 55v7q0 3 1 6q2 50 14 103t31 105t43.5 101.5t54 94t62.5 82t68 64t70 42t70 15.5q40 0 77.5 -22t70.5 -71q7 -11 9 -22.5t2 -20.5q0 -24 -11 -37.5t-27 -13.5q-14 0 -26 15t-27 42q-14 25 -31 36.5
t-37 11.5q-31 0 -66 -25.5t-69 -67.5t-65.5 -96t-56 -110.5t-38.5 -111.5t-14 -99q0 -15 2 -30.5t7.5 -28t15 -20.5t23.5 -8q16 0 37 11t43 29t44.5 40t42 45t34.5 44.5t22 36.5l41 123q8 20 20 28t25 8q6 0 12 -2t11 -6.5t8 -11.5t3 -16q0 -25 -4.5 -47t-11.5 -43
t-15.5 -42t-16.5 -44zM1007 181q-20 -26 -45.5 -51t-53 -44t-54 -31t-47.5 -12t-34 14t-13 48q0 24 7 56q-12 -20 -29 -41t-39 -38t-49.5 -28t-59.5 -11q-14 0 -27.5 3.5t-23.5 12.5t-16.5 24t-6.5 37q0 1 2 16.5t11.5 48.5t29 85.5t55.5 127.5q10 20 22 28.5t26 8.5
q6 0 12.5 -1.5t12.5 -5.5t9.5 -10t3.5 -14q0 -5 -2 -10q-2 -9 -9 -23q-8 -15 -17 -33l-20 -40q-11 -21 -20.5 -44t-16 -47t-7.5 -46q0 -9 4.5 -17t14.5 -8q29 0 55 19t48 46.5t39.5 60t29.5 58.5q9 18 15 38t13.5 37.5t17.5 29t24 11.5q16 0 25.5 -12t9.5 -29q0 -9 -6 -25.5
t-15 -37.5t-20 -45t-19.5 -49t-14.5 -48.5t-6 -44.5q0 -18 19 -18q14 0 34 9t42.5 26t44.5 40t39 50zM1020 207q-5 -12 -9.5 -28t-4.5 -28q0 -8 2.5 -13t10.5 -5q9 0 23 6.5t30 17.5t33.5 24.5t34.5 28.5t32.5 30t28.5 27q3 4 8 5.5t9 1.5q8 0 14 -7t6 -19q0 -11 -6.5 -25
t-21.5 -27q-28 -30 -56.5 -58t-57 -49t-56.5 -33.5t-55 -12.5q-18 0 -30 6t-19 15.5t-10 23.5t-3 29q0 25 6 52t15 49q15 40 31 81q16 40 29 74l134 336q8 20 21.5 28.5t27 8.5t24.5 -9t11 -28q0 -10 -3.5 -20.5t-9.5 -22.5q-11 -24 -26 -60t-33 -77q-18 -43 -35 -87
q-20 -48 -36 -88q-18 -43 -33 -81t-26 -66zM1644 301q6 4 11.5 7t10.5 3q9 0 14 -9t5 -21q0 -14 -6 -28t-18 -23q-47 -42 -84 -76q-37 -35 -69.5 -59.5t-64 -38t-67.5 -13.5q-33 0 -51.5 14.5t-18.5 39.5v4q0 2 1 5q2 15 13.5 35.5t28.5 42.5t36 44q18 22 35 43
q16 20 26.5 36.5t10.5 27.5q0 6 -4.5 9.5t-14.5 3.5q-18 0 -36.5 -9t-37 -24.5t-35.5 -35t-32.5 -41t-28 -43t-21.5 -40.5q-2 -5 -7 -16t-11 -23q-6 -14 -12 -27q-6 -14 -11 -26q-2 -5 -5.5 -12t-4.5 -10q-4 -10 -6 -13q-2 -5 -7 -18t-12 -31q-11 -29 -14 -36
q-7 -21 -13 -37q-8 -21 -11 -30q-5 -13 -7 -18q-4 -13 -10 -25t-13.5 -21.5t-17.5 -15t-22 -5.5q-16 0 -26.5 7.5t-10.5 29.5q0 10 2.5 21t6.5 22q4 10 8.5 20.5t7.5 19.5q24 52 49 105q24 53 46.5 104t42 100.5t32.5 94.5q4 10 10 27t14 34t18 29t21 12q18 0 25.5 -8
t7.5 -24v-10q-1 -7 -3 -14q-1 -8 -2.5 -14.5t-2.5 -9.5q16 17 35 35t39 32t41.5 22.5t42.5 8.5q14 0 28.5 -4t25.5 -12t18 -20.5t7 -28.5q0 -21 -10.5 -45.5t-27 -49t-35.5 -47.5q-19 -24 -35 -42.5t-28 -31.5q-11 -14 -12 -18q0 -7 4 -11t14 -4q7 0 21.5 8.5t40.5 29.5
q27 21 67 55q39 34 99 87z" />
    <glyph glyph-name="uniE601" unicode="&#xe601;" 
d="M61 896l82 -922l368 -102l370 103l82 921h-902zM785 595h-433l10 -116h412l-31 -347l-232 -64l-231 64l-16 177h114l8 -90l125 -34h1l126 34l13 147h-392l-30 342h566z" />
    <glyph glyph-name="uniE602" unicode="&#xe602;" horiz-adv-x="1050" 
d="M545 566l-198 -101l-58 -29l7 -72h328l-12 -127l-99 -26l-88 26l-11 76h-113l15 -152l197 -51l198 51l29 304h-178l188 96l10 107h-494l10 -102h269zM119 835l72 -803l322 -90l322 90l72 803h-788zM775 99l-262 -73l-262 73l-58 653h640z" />
    <glyph glyph-name="uniE603" unicode="&#xe603;" 
d="M128 896q-53 0 -90.5 -37.5t-37.5 -90.5v-768q0 -53 37.5 -90.5t90.5 -37.5h768q53 0 90.5 37.5t37.5 90.5v768q0 53 -37.5 90.5t-90.5 37.5h-768zM288 846h98v-670q0 -131 -50 -190q-49 -59 -159 -59h-37v82h31q64 0 90.5 36.5t26.5 130.5v670zM756 593q45 0 91.5 -8
t95.5 -24v-85q-49 24 -93 35.5t-84 11.5q-71 0 -109 -27q-39 -28 -39 -78q0 -43 26 -64q25 -22 96 -35l53 -11q96 -18 142 -65q46 -46 46 -124q0 -93 -62 -141t-182 -48q-46 0 -97 11q-51 10 -106 30v89q53 -29 103.5 -44t99.5 -15q73 0 113.5 29t40.5 83q0 47 -29 73
q-29 27 -95 40l-52 10q-97 20 -140 61t-43 114q0 85 59 133q60 49 165 49z" />
    <glyph glyph-name="uniE604" unicode="&#xe604;" 
d="M475 433q73 77 197 70q-4 18 -4 19q-4 6 -11.5 23t-14 28t-14.5 21q-50 60 -128.5 86.5t-159.5 11.5t-139 -67q-96 -86 -70 -207q15 -71 85 -125q19 -13 10 -34q-1 -5 -19 -57q25 6 45 18q52 31 98 17q10 -3 22 -4t28.5 -1.5t24.5 -0.5q-29 119 50 202zM498 577
q31 0 32 -30q0 -15 -7.5 -24t-22.5 -9q-16 0 -27 8.5t-11 22.5q-1 13 10 22.5t26 9.5zM310 514q-17 0 -27.5 9t-10.5 23q0 13 10.5 22t26.5 9q15 0 24 -9t9 -23t-9 -22.5t-23 -8.5zM835 425q-61 59 -150 67.5t-162 -38.5q-61 -39 -83 -100t1 -122t85 -99q93 -56 197 -28
q21 6 38 -5q4 -3 53 -29q3 2 4 3q-13 45 -14 51q-2 11 6 21q6 6 18.5 18t18.5 18q50 58 47 123.5t-59 119.5zM590 331q-11 0 -19 7.5t-8 17.5q1 11 8 17.5t18 6.5q13 0 21.5 -7.5t8.5 -17.5q-1 -10 -9.5 -17t-19.5 -7zM738 331q-10 0 -18.5 7.5t-8.5 16.5q0 10 8.5 17.5
t19.5 7.5q12 0 20 -7.5t8 -18.5q-1 -9 -9.5 -16t-19.5 -7z" />
    <glyph glyph-name="uniE605" unicode="&#xe605;" 
d="M795 221q-55 28 -78 80q-16 38 -11 83q5 40 28 71q17 22 44 39q4 3 1 7q-9 12 -20 22q-42 40 -109 45q-28 2 -63 -10q-30 -10 -50 -18q-21 -8 -43 0q-50 18 -51 18q-30 9 -52 8q-25 -2 -45 -9q-74 -28 -107 -107q-17 -43 -16 -97q-1 -22 3 -50q10 -65 40 -130
q19 -40 56 -87q20 -26 41 -41q30 -21 65 -12q16 4 36 12q29 12 54 13q31 2 67 -13q19 -8 35 -11q36 -9 67 11q17 11 31 29q56 66 80 139q2 4 1.5 5t-4.5 3zM514 574q28 -1 53 10q28 14 51 43q35 45 35 97v7q0 6 -1 7t-7 0q-25 -3 -51 -18q-56 -29 -78 -90q-9 -25 -6 -52
q0 -4 4 -4z" />
    <glyph glyph-name="uniE606" unicode="&#xe606;" 
d="M389 569q-11 -5 -22.5 -12t-19.5 -12t-21 -15.5t-18 -14.5t-19 -17.5t-17 -16t-19 -18.5l-17 -17q7 48 40 97q92 138 249 145q20 1 41 7t45.5 14.5t38.5 12.5q79 21 128 11q44 -9 65 -39.5t14 -75.5q-5 -39 -22 -78q-7 -17 2 -33q33 -66 32 -150q0 -22 -5 -26.5t-27 -4.5
h-189h-213q-21 0 -25 -5.5t1 -25.5q13 -57 68.5 -86.5t115.5 -11.5q47 13 72 47q13 17 35 17q7 0 125 -1q17 0 19.5 -3t-4.5 -18q-56 -124 -179 -171q-123 -48 -246 5q-13 6 -28 -1q-62 -30 -124 -39q-51 -7 -81 18.5t-32 77.5q-3 98 66 220q72 126 164 212q0 1 7 8z
M549 415h117q21 0 25 5.5t-2 25.5q-16 54 -66.5 81.5t-107.5 14.5q-41 -10 -71 -40t-36 -66q-2 -12 1.5 -16.5t15.5 -4.5q14 1 124 0zM242 257q-39 -79 -37 -132q1 -29 17 -45.5t45 -18.5q44 -3 94 21q13 6 13.5 9.5t-11.5 11.5q-64 45 -100 111q-1 2 -21 43zM670 670l4 -5
q90 -43 138 -115q7 -10 12 3q14 39 15 70q1 25 -14 44.5t-40 24.5q-12 3 -24.5 2.5t-22 -1.5t-24 -6t-21 -7.5t-23.5 -9.5z" />
    <glyph glyph-name="uniE607" unicode="&#xe607;" horiz-adv-x="1025" 
d="M984 345h-944q-17 0 -28.5 11.5t-11.5 27.5t11.5 27.5t28.5 11.5h944q16 0 27.5 -11.5t11.5 -27.5t-11.5 -27.5t-27.5 -11.5v0zM906 -128h-236q-17 0 -28.5 11.5t-11.5 28t11.5 28t28.5 11.5h236q16 0 27.5 11.5t11.5 27.5v197q0 16 11.5 27.5t28 11.5t28 -11.5
t11.5 -27.5v-197q0 -49 -34.5 -83.5t-83.5 -34.5v0zM315 -128h-197q-49 0 -83.5 34.5t-34.5 83.5v197q0 16 11.5 27.5t28 11.5t28 -11.5t11.5 -27.5v-197q0 -16 11.5 -27.5t27.5 -11.5h197q16 0 27.5 -11.5t11.5 -28t-11.5 -28t-27.5 -11.5v0zM39 542q-16 0 -27.5 11.5
t-11.5 27.5v197q0 49 34.5 83.5t83.5 34.5h197q16 0 27.5 -11.5t11.5 -28t-11.5 -28t-27.5 -11.5h-197q-16 0 -27.5 -11.5t-11.5 -27.5v-197q0 -16 -11.5 -27.5t-28.5 -11.5v0zM985 542q-17 0 -28.5 11.5t-11.5 27.5v197q0 16 -11.5 27.5t-27.5 11.5h-236q-17 0 -28.5 11.5
t-11.5 28t11.5 28t28.5 11.5h236q49 0 83.5 -34.5t34.5 -83.5v-197q0 -16 -11.5 -27.5t-27.5 -11.5v0z" />
    <glyph glyph-name="uniE608" unicode="&#xe608;" horiz-adv-x="1540" 
d="M1281 735q26 0 50 -10t41.5 -27.5t27.5 -41.5t10 -51v-372q0 -28 -10 -51t-27.5 -41t-41.5 -28t-50 -10h-1009q-27 0 -50.5 10t-41.5 28t-28 41t-10 51v372q0 27 10 51t28 41.5t41.5 27.5t50.5 10h1009zM536 276q36 29 50 84l-50 16q-10 -43 -33 -57.5t-60 -14.5
q-3 0 -19 1.5t-34 12.5t-33 35.5t-15 71.5q0 5 3.5 23.5t14.5 38t31.5 35.5t55.5 16q33 0 49.5 -14t29.5 -42l55 16q-14 47 -48 72q-35 26 -85 26q-44 0 -82 -20q-38 -22 -57 -60q-21 -39 -21 -92q0 -47 18 -90q17 -41 52 -64q33 -23 89 -23q53 0 89 29zM811 447
q-44 13 -62 23.5t-18 28.5q0 21 18 32.5t60 11.5q19 0 30.5 -3t19.5 -9.5t13 -16t11 -22.5l42 4q0 2 -2 18.5t-14 34t-36 32.5t-67 15q-45 0 -70.5 -11t-38.5 -26t-16.5 -30.5t-3.5 -25.5q0 -28 15.5 -46.5t36 -30t40 -17t27.5 -8.5q25 -7 40.5 -15t24 -15.5t11 -14
t2.5 -11.5v-18q0 -9 -5.5 -15t-18.5 -10t-40 -4q-32 0 -49.5 6.5t-25.5 16t-9 20.5t-1 21h-50q0 -16 2.5 -35.5t16 -37t42.5 -30t83 -12.5q15 0 33.5 2.5t34 12.5t26.5 30t11 57q0 7 -2 19t-13 26t-33.5 28t-64.5 25zM1153 447q-28 7 -43 12t-23 11t-9.5 12.5t-1.5 16.5
q0 21 16.5 31.5t57.5 10.5q20 0 30.5 -2.5t16 -8.5t9 -15.5t10.5 -22.5l51 4q0 2 -2.5 18.5t-14 34t-35.5 32.5t-67 15q-44 0 -70.5 -11t-39 -26t-16 -30.5t-3.5 -25.5q0 -28 15.5 -48t35.5 -33t39.5 -19.5t28.5 -8.5q29 -8 44 -14.5t21 -12.5t6.5 -11.5t0.5 -10.5
q0 -10 -1.5 -17t-7.5 -12.5t-18 -8.5t-31 -3q-32 0 -48.5 8.5t-23.5 18.5t-7.5 19t-0.5 12h-56q0 -4 3 -22.5t16.5 -39t42.5 -37t82 -16.5q15 0 33.5 4.5t34.5 16t26.5 30.5t10.5 51v19q0 13 -10 27t-33.5 27.5t-68.5 24.5z" />
    <glyph glyph-name="uniE609" unicode="&#xe609;" horiz-adv-x="1632" 
d="M1367 749q24 0 46 -9.5t38 -25.5t25.5 -37.5t9.5 -46.5v-342q0 -25 -9.5 -46t-25.5 -37.5t-38 -26t-46 -9.5h-1102q-25 0 -46.5 9.5t-38 26t-25.5 37.5t-9 46v342q0 25 9 46.5t25.5 37.5t38 25.5t46.5 9.5h1102zM503 620h-44v-136h-134v136h-45v-316h45v131h134v-131h44
v316zM771 618h-223v-47h89v-268h45v268h89v47zM1128 618h-70l-82 -231l-89 231h-70v-315h43v230l84 -230h53l87 226v-226h44v315zM1397 349h-135v268h-44v-314h179v46z" />
    <glyph glyph-name="uniE60A" unicode="&#xe60a;" 
d="M942 384q0 -143 -84 -258t-216 -159q-16 -2 -23 4.5t-7 17.5v120q0 56 -30 81q33 4 59 10.5t53.5 22t46.5 38t30.5 60t11.5 86.5q0 69 -45 118q21 52 -5 116q-16 5 -46 -6.5t-53 -24.5l-21 -14q-53 15 -110 15t-110 -15q-9 6 -24 15.5t-47.5 22t-49.5 7.5
q-25 -64 -4 -116q-45 -49 -45 -118q0 -49 11.5 -86t30 -60t46 -38.5t53.5 -22t59 -10.5q-23 -20 -28 -59q-12 -5 -25.5 -8t-32.5 -3t-37.5 12.5t-31.5 35.5q-11 18 -28 29.5t-28 13.5l-12 2q-12 0 -16.5 -2.5t-3 -6.5t5 -8t7.5 -7l4 -3q13 -5 25 -21t18 -30l6 -13
q7 -21 25 -34.5t38.5 -17.5t39.5 -4t32 2l13 2v-50v-31q0 -11 -7 -17.5t-23 -4.5q-132 44 -216 159t-84 258q0 120 59 220.5t160 159.5t220 59t220 -59t160 -160t59 -220z" />
    <glyph glyph-name="uniE60B" unicode="&#xe60b;" 
d="M755 555l10 100h-506l27 -305h350l-13 -131l-112 -30l-112 30l-8 80h-100l13 -158l207 -58h2v1l205 57l29 310h-368l-9 104h385zM110 823h804l-73 -822l-330 -92l-328 92z" />
    <glyph glyph-name="uniE60C" unicode="&#xe60c;" 
d="M654 171l-367 -1l-71 -169h159v-57h-311v57h55l377 822h33l387 -822h45v-57h-281v57h61zM339 281h258l-117 238h-23zM339 281z" />
    <glyph glyph-name="uniE60D" unicode="&#xe60d;" horiz-adv-x="1104" 
d="M8 888zM1024 326v471q0 8 -5.5 13t-12.5 5h-907q-8 0 -13.5 -5t-4.5 -13v-471q0 -8 5 -13.5t13 -5.5h907q7 0 12.5 5.5t5.5 13.5zM1097 797v-617q0 -37 -27 -63.5t-64 -26.5h-309q0 -21 9.5 -44t18.5 -40.5t9 -24.5q0 -15 -11 -25.5t-26 -10.5h-290q-15 0 -25.5 10.5
t-10.5 25.5q0 8 9 25t18 39.5t9 44.5h-308q-38 0 -64.5 26.5t-26.5 63.5v617q0 38 26.5 64.5t64.5 26.5h907q37 0 64 -26.5t27 -64.5z" />
    <glyph glyph-name="uniE60E" unicode="&#xe60e;" 
d="M181 389q57 23 103.5 31.5t83 1.5t62 -18t55.5 -32l-80 -273q-31 21 -55 32.5t-61 19t-83.5 -0.5t-103.5 -32l78 270zM526 346q31 -20 55 -31.5t60 -19t82.5 -1t104.5 26.5l-76 -263q-57 -24 -103.5 -32t-83.5 -1t-61.5 18.5t-55.5 32.5zM498 422q-38 26 -72.5 40
t-77.5 14q-62 1 -155 -38l79 272q57 24 103.5 32t83.5 1t62 -18.5t55 -32.5zM922 646q-57 -24 -103.5 -32t-83.5 -1t-62 18.5t-55 32.5l-79 -272q31 -21 57 -32.5t63 -19t83.5 1t101.5 33.5z" />
    <glyph glyph-name="uniE60F" unicode="&#xe60f;" 
d="M839.5 551q-22.5 0 -38.5 -16t-16 -39v-216q0 -23 16 -39.5t38.5 -16.5t38.5 16.5t16 39.5v216q0 23 -16 39t-38.5 16zM182.5 551q-22.5 0 -38.5 -16t-16 -39v-216q0 -23 16 -39.5t38.5 -16.5t38.5 16.5t16 39.5v216q0 23 -16 39t-38.5 16zM270 550v-395
q0 -18 12.5 -30.5t29.5 -12.5h49v-120q0 -23 16 -39.5t38.5 -16.5t38.5 16.5t16 39.5v120h84v-120q0 -23 16 -39.5t39 -16.5t38.5 16.5t15.5 39.5v120h49q18 0 30 12.5t12 30.5v395h-484zM626 754l45 65q5 7 -1.5 11.5t-11.5 -2.5l-46 -68q-48 19 -101 19t-101 -19l-46 68
q-5 7 -11 2.5t-2 -11.5l45 -65q-54 -25 -88.5 -70t-38.5 -99h484q-4 54 -38.5 99t-88.5 70zM409 652q-11 0 -19 8t-8 19t8 18.5t19 7.5t19 -7.5t8 -18.5t-8 -19t-19 -8zM617 652q-11 0 -19 8t-8 19t8 18.5t19 7.5t18.5 -7.5t7.5 -18.5t-7.5 -19t-18.5 -8z" />
    <glyph glyph-name="uniE610" unicode="&#xe610;" 
d="M308 551zM270 551.5q0 15.5 11.5 26.5t27 11t26.5 -11t11 -26.5t-11 -26.5t-26.5 -11t-27 11t-11.5 26.5zM594 357zM564 356.5q0 12.5 8.5 21t21 8.5t21 -8.5t8.5 -21t-8.5 -21t-21 -8.5t-21 8.5t-8.5 21zM500 551zM463 551.5q0 15.5 11 26.5t26.5 11t26.5 -11t11 -26.5
t-11 -26.5t-26.5 -11t-26.5 11t-11 26.5zM814 834h-605q-60 0 -102.5 -42.5t-42.5 -102.5v-604q0 -61 42.5 -103.5t102.5 -42.5h605q60 0 102.5 42.5t42.5 103.5v604q0 60 -42.5 102.5t-102.5 42.5zM400 235q-26 0 -95 13l-95 -47l27 81q-109 76 -109 183q0 97 80 164
t192 67q100 0 178 -54t96 -136q-15 1 -26 1q-97 0 -164 -62.5t-67 -151.5q0 -29 8 -57q-14 -1 -25 -1zM800 140l21 -68l-75 41q-54 -14 -81 -14q-97 0 -164 57.5t-67 139t67 139.5t164 58q92 0 161 -58.5t69 -138.5q0 -85 -95 -156zM741 357zM712 356.5q0 12.5 8.5 21
t21 8.5t21 -8.5t8.5 -21t-8.5 -21t-21 -8.5t-21 8.5t-8.5 21z" />
    <glyph glyph-name="uniE611" unicode="&#xe611;" 
d="M912 172l-130 167v-167h-77v294h75l130 -159v159h77v-294h-75zM525.5 162q-60.5 0 -103 46.5t-42.5 112t42.5 112t103 46.5t103 -46.5t42.5 -112t-42.5 -112t-103 -46.5zM529.5 406q-31.5 0 -54.5 -24t-23 -57.5t23 -57.5t54.5 -24t54 24t22.5 57.5t-22.5 57.5t-54 24z
M234 154l-41 73q7 0 17.5 0.5t30 8.5t25.5 23q6 16 -7 36t-30.5 40t-18.5 30q-3 28 7.5 50t25.5 33.5t32.5 19t27.5 9.5t12 2l32 -65q-1 0 -4 1t-11.5 1t-15.5 -1.5t-14.5 -8t-10.5 -17.5q-4 -17 9 -35t29.5 -40t17.5 -46t-10 -44.5t-28 -33t-34 -21t-29 -12.5zM37 178
q5 3 11.5 8t18 26t11.5 47v207h89v-215q0 -2 0.5 -6.5t-0.5 -18t-6 -28t-18 -35.5t-33 -42l-18 14t-36 29z" />
    <glyph glyph-name="uniE612" unicode="&#xe612;" 
d="M511 -152q-105 0 -194.5 52t-141.5 141.5t-52 194.5q0 133 80.5 236.5t205.5 137.5q-2 5 -2 10v3v6q-15 6 -25 19t-10 30q0 8 3 16l44 35h5q21 0 36 -15t15 -36q0 -25 -20 -41q5 -6 5 -14v-3q25 3 51 3q105 0 194.5 -51.5t141 -141t51.5 -194.5t-51.5 -194.5t-141 -141.5
t-194.5 -52zM514 -49q29 0 58 6v23q-5 -1 -10 -1q-19 0 -32.5 13.5t-13.5 33.5q0 16 9.5 28t23.5 17l-33 82q-19 1 -35 9l-146 -127l105 165q-1 2 -2 2l-95 7q1 -6 1 -12q0 -19 -13.5 -33t-32.5 -14q-17 0 -29.5 10t-16.5 26l-22 -9q23 -98 102 -162t182 -64zM466 678
q0 17 -12.5 29.5t-30 12.5t-29.5 -12.5t-12 -29.5q0 -14 8 -25t21 -15q8 10 21 10h3q7 0 14 -4q17 13 17 34zM450 526q-99 -22 -163 -101.5t-64 -182.5q0 -25 5 -51l24 -1q-1 4 -1 7q0 19 13.5 33t33.5 14q15 0 27.5 -9t16.5 -24l87 40q1 12 5 24l-30 47l48 -17q12 12 28 20
l-2 90h-3q-19 0 -33 13.5t-14 33.5q0 15 9.5 27.5t23.5 16.5zM514 533q-23 0 -47 -4v-21h8q19 0 33 -13.5t14 -32.5q0 -17 -11 -30t-27 -16l44 -83q13 -1 25 -6l146 122l-104 -157q3 -5 6 -11h87q-1 5 -1 9q0 20 13.5 33.5t32.5 13.5q18 0 31 -11.5t16 -28.5l18 11
q-23 98 -102 161.5t-182 63.5zM801 293l-21 3v-6q0 -19 -13.5 -32.5t-33.5 -13.5q-15 0 -27.5 9t-16.5 24l-81 -43q-1 -13 -6 -25l31 -39l-48 13q-12 -14 -29 -22v-89h6q20 0 33.5 -13.5t13.5 -32.5q0 -17 -10.5 -29.5t-25.5 -16.5l11 -20q96 24 158.5 102.5t62.5 179.5
q0 25 -4 51z" />
    <glyph glyph-name="uniE613" unicode="&#xe613;" 
d="M511 686q-78 0 -146.5 -27.5t-120 -78t-81 -126t-29.5 -165.5q0 -108 50.5 -199.5t137.5 -144.5t189 -53t189 53t137.5 144.5t50.5 199.5q0 88 -30 163t-81 126t-119.5 79.5t-146.5 28.5zM511 -27q-143 0 -143 316q0 80 9 139t22.5 92t33 53t38 26t40.5 6t40.5 -6.5
t38 -26.5t33 -53.5t22.5 -92t9 -137.5t-9 -137.5t-22.5 -92t-33 -53.5t-38 -26.5t-40.5 -6.5z" />
    <glyph glyph-name="uniE614" unicode="&#xe614;" 
d="M951 300q0 -143 -84 -258t-216 -159q-16 -2 -23 4.5t-7 17.5v120q0 56 -30 81q33 4 59 10.5t53.5 22t46.5 38t30.5 60t11.5 86.5q0 69 -45 118q21 52 -5 116q-16 5 -46 -6.5t-53 -24.5l-21 -14q-53 15 -110 15t-110 -15q-9 6 -24 15.5t-47.5 22t-49.5 7.5
q-25 -64 -4 -116q-45 -49 -45 -118q0 -49 11.5 -86t30 -60t46 -38.5t53.5 -22t59 -10.5q-23 -20 -28 -59q-12 -5 -25.5 -8t-32.5 -3t-37.5 12.5t-31.5 35.5q-11 18 -28 29.5t-28 13.5l-12 2q-12 0 -16.5 -2.5t-3 -6.5t5 -8t7.5 -7l4 -3q13 -5 25 -21t18 -30l6 -13
q7 -21 25 -34.5t38.5 -17.5t39.5 -4t32 2l13 2q0 -21 3 -50.5t3 -30.5q0 -11 -7.5 -17.5t-23.5 -4.5q-132 44 -216 159t-84 258q0 119 59 220t160 160t220.5 59t220 -59t159.5 -160t59 -220h-5z" />
    <glyph glyph-name="uniE615" unicode="&#xe615;" 
d="M943 527q-28 46 -80 58.5t-102 -16.5q-26 -15 -40.5 -41.5t-19 -56t-8 -59t-15 -57.5t-32.5 -44q-1 85 -50 148q-66 83 -177 83q-108 0 -172 -100q-45 -69 -50 -161q-38 -11 -72 8t-58 54q-7 -42 2 -73t24 -46t41 -24.5t39.5 -11t32.5 -2.5q6 -1 8 -1q8 -1 -0.5 -37.5
t-15 -71.5t10.5 -52q22 -13 73.5 -13t66.5 14q4 3 6.5 8t3.5 12t1.5 13.5t0 16t-1.5 16.5t-3 19t-3.5 19t-4 20t-3.5 19q97 -4 167 3q-2 -22 -8 -51.5t-8.5 -44.5t1 -30t15.5 -22q17 -12 73 -8.5t74 20.5q10 10 3.5 46.5t-13.5 65t5 43.5q38 29 65 60t38 51.5t24.5 38.5
t27.5 27q12 7 39.5 7.5t54 7t41.5 26.5q17 24 15.5 58.5t-16.5 60.5z" />
    <glyph glyph-name="uniE616" unicode="&#xe616;" 
d="M64 832v-256h384v256h-384zM384 640h-256v128h256v-128zM64 512v-192h384v192h-384zM384 384h-256v64h256v-64zM512 832v-512h448v512h-448zM896 384h-320v384h320v-384zM64 256v-320h896v320h-896zM896 0h-768v192h768v-192z" />
    <glyph glyph-name="uniE617" unicode="&#xe617;" 
d="M518 774l58 -32q26 -17 26 -26q0 -22 -20 -51q-5 -9 -14.5 -16.5t-25.5 -18.5t-24 -16q-19 -29 -19 -58l-6 -326v-52q112 34 134 45l13 13q0 45 -13 96v6h19h13q40 0 58 -44l6 -20v-19l13 -13q13 0 141 32l19 7q48 0 58 -39l6 -19q0 -13 -6.5 -22.5t-12.5 -9.5
q-13 0 -71 39h-38h-6q-69 0 -90 -32v-13l-13 -51v-7q3 0 4.5 -1.5t1.5 -3.5l1 -1h19q19 0 57 -19q0 -11 32 -32q31 -18 52.5 -44t43.5 -65l7 -19v-7q0 -32 -45 -32h-6q-52 0 -109 115q-26 39 -51 64q-6 0 -14 -10t-12 -28l-32 -58q-53 -64 -109 -64v7q40 50 58 102
q30 70 38 147q-5 0 -5.5 1t-0.5 6q-17 0 -109 -51q-26 -13 -45 -13l-6 -7v-25l19 -147v-20q0 -38 -26 -51q-57 29 -57 141v13l13 275q6 58 12 173v38q-12 7 -25 7q-26 -13 -71 -39v-13q0 -1 2 -13t3.5 -31t1.5 -39v-6q0 -26 6 -39l-6 -64q0 -32 6 -44v-64q0 -99 -51 -212
q-19 -38 -58 -76h-6q-14 0 -20.5 13t-11.5 44q-16 17 -23.5 25t-14.5 19t-7 20h32q19 0 32 13q26 34 26 128l-7 128q-11 0 -32 -51q-44 -45 -83 -103q-13 -6 -25 -25q-7 -7 -26 -7v7v6l13 32l-7 7q96 137 141 256q3 14 6.5 32.5t5 28.5t1.5 15q13 21 12 31t-12 21
q-45 -38 -90 -116q-32 -54 -76 -89l-20 -19h-6q0 3 12.5 26t41.5 71t68 107q8 14 22.5 40.5t21.5 36.5q0 13 -32 45q-19 13 -44 45l-12 11q-3 4 -5.5 9.5t-2.5 11.5q0 19 39 19q32 0 70 -19q19 -19 26 -19l57 44q13 7 20 7h6q32 0 32 -39q0 -30 -45 -57l-13 -19
q0 -32 20 -90q44 45 83 122q38 67 77 115zM774 722q30 0 39 -25l6 -7q0 -19 -38 -115h32q67 0 77 -19q6 0 6 -13q0 -22 -19 -32h-7l-76 7q-90 0 -205 -39h-19q-13 0 -23.5 7.5t-28.5 24.5q7 5 18 9t19.5 6.5t28.5 8t30 8.5q23 0 109 19q0 55 19 103q-4 0 -8 4t-4 9
q-26 -7 -52 -7h-6h-13v7q13 12 32 12q15 0 27.5 3.5t18 8t5.5 8.5q13 12 32 12zM582 447q49 0 58 -45l6 -25q-37 -38 -89 -45l-26 -6q0 12 26 64l6 32v6v19h19zM838 447h7l32 -13q2 -4 5.5 -10t5.5 -9t2 -6q0 -10 -20 -19l-6 -7h-6l-7 7q-25 0 -121 -32l-32 -7l-26 7v6
q40 17 74.5 34t60.5 32t31 17z" />
    <glyph glyph-name="uniE618" unicode="&#xe618;" 
d="M150 -153l735 -6l-551 196zM380 85l540 -199l-218 532zM920 644l-172 -178l215 -543zM356 148l289 299l-301 1zM579 718l-210 -218l300 -1zM76 197l229 -85l-12 309zM876 687l-236 42l83 -201zM120 -97l151 157l-200 73zM9 177l587 609l372 -67l47 -931l-925 8z" />
    <glyph glyph-name="uniE619" unicode="&#xe619;" 
d="M512 -115q-20 12 -30 32t-17.5 42t-19.5 34q-23 24 -63.5 42t-81 37t-64.5 47q-46 53 -64 122t-9 136t44 130t87.5 108t129.5 65.5t163 6.5q62 -11 117.5 -49t93.5 -95.5t57 -122.5t9 -136.5t-51 -131.5q-21 -30 -55.5 -54t-66 -39t-68.5 -41t-61 -58q-8 -8 -12.5 -27.5
t-12.5 -33t-25 -14.5zM211 361q-2 -45 19.5 -75.5t54 -37t65 0t55.5 35t23 69.5q0 57 -44 89.5t-106 10.5q-42 -15 -53.5 -33.5t-13.5 -58.5zM671 244q82 -23 124 38q32 48 17 107q-16 60 -69 71q-32 7 -72 -7q-44 -16 -59.5 -62.5t2 -91t57.5 -55.5zM479 144q14 -3 22 17.5
t4.5 43t-18.5 22.5q-8 -8 -15.5 -19t-14 -24.5t-1.5 -24.5t23 -15zM554 144h16q15 26 0.5 53t-41.5 30q1 -10 0 -21t-0.5 -22t2 -20t7.5 -14.5t16 -5.5z" />
    <glyph glyph-name="uniE61A" unicode="&#xe61a;" 
d="M252 483v-228q0 -13 1 -15q3 -4 20 -4.5t20 -5.5q1 -2 1 -17v-9v-3v-3v-3q-1 -2 -12 -5q-6 -1 -14 -2q-13 -1 -28 3q-19 6 -32 16q-7 6 -8 8q0 1 -1 7q-2 19 -3 49q-2 29 -1 90.5t1 90.5q-11 2 -23 -4.5t-18 -6.5q-4 -14 -5 -40.5t-2.5 -45t-11 -34.5t-27.5 -19
q28 -14 37 -50q7 -28 4 -70q-1 -14 2 -18q3 -5 14 -10.5t14 -11.5q3 -7 0 -14q-1 -4 -7 -8q-15 -6 -30.5 -4t-28.5 9q-5 2 -9 5q-6 5 -7 8q-1 0 -2 6q-3 15 -4 50v10v12v9q0 32 -2.5 36.5t-16.5 12.5t-16 17q-3 16 4 24q3 5 12.5 10t13.5 9q5 5 5 9l-1 7q-5 30 -3 52
q7 77 93 84q30 2 71 -3zM818 117q-3 13 1 22q3 6 12.5 12.5t11.5 8.5q5 5 6 8v11q-3 49 5 79.5t36 38.5q-2 1 -4 3l-3 1q-37 26 -35 106v10q1 13 -1 17q-3 6 -15 12.5t-15 13.5q-3 9 1 23q2 0 7 0.5t8 0.5q54 2 70 -44q10 -27 9 -76q0 -3 -0.5 -7.5t-0.5 -6.5v-13
q2 -9 17.5 -15.5t17.5 -14.5q5 -14 -3 -25q-4 -6 -17 -12.5t-17 -9.5q-3 -3 -3 -4v-8q4 -77 -6 -102q-9 -22 -30 -29q-22 -8 -52 0zM474 277h-129q0 -38 40 -44q26 -4 73 8q0 -6 3.5 -21.5t1.5 -25.5q-33 -7 -54 -7q-33 -1 -56 6q-51 15 -63 61q-14 54 13 102q12 19 30 32
q21 15 47 16q28 2 49 -8q17 -9 29 -27q13 -19 17 -41q5 -27 -1 -51zM411.5 348q-12.5 11 -31.5 9q-16 -1 -26 -11.5t-9 -27.5h38h39q2 19 -10.5 30zM633 390q-1 -18 -10 -41q-27 9 -41 10q-28 1 -36 -15q6 -17 40 -27.5t43 -19.5q4 -4 4 -5l2 -7q9 -29 1 -51t-33 -35
q-21 -12 -55 -13q-28 -1 -59 8q-2 17 10 47q1 -1 5 -2q17 -10 47 -8.5t36 20.5q-8 15 -24 23q-3 1 -36 11q-21 6 -30 17q-4 6 -7 16q-4 10 -4 20q0 28 27 46q23 17 56 18q32 2 64 -12zM793 390v-14q0 -3 -2.5 -11t-3.5 -11q-6 -3 -22 0q-16 4 -21 4q-25 4 -32 -10
q-2 -3 -2 -4q0 -3 4 -10q8 -12 26 -16l15 -3q10 -2 17 -3.5t12 -5.5q2 -2 7 -8q16 -20 15 -41q-2 -22 -21 -41q-33 -33 -88 -33q-26 0 -49 12q-1 11 4.5 25t5.5 21l4 -2h2q6 -3 17 -5q49 -12 63 12q2 3 2 5q0 4 -6 11q-9 11 -36.5 18.5t-36.5 13.5q-7 5 -9 9q0 1 -3 9
q-5 16 -4 30q2 18 14 32q23 26 66 28q32 1 62 -12z" />
    <glyph glyph-name="uniE61B" unicode="&#xe61b;" 
d="M416 636h-160v-425q0 -75 -24.5 -105t-74.5 -30q-41 0 -76 13l-17 -125q47 -16 110 -16q242 0 242 262v426zM765 652q-114 0 -183.5 -57.5t-69.5 -146.5q0 -135 185 -204q60 -21 85.5 -42.5t25.5 -52.5q0 -34 -27 -54.5t-78 -20.5q-82 0 -161 43l-30 -126
q31 -18 80 -30.5t102 -12.5q130 0 198 60t68 151q0 73 -41.5 122t-129.5 83q-70 28 -96 47t-26 50q0 28 25 47t71 19q66 0 133 -35l38 128q-73 32 -169 32z" />
    <glyph glyph-name="uniE61C" unicode="&#xe61c;" 
d="M512 -148q-18 0 -33 9l-106 65q-17 9 -3 14q21 8 50 25q3 2 8 -1l79 -47q5 -3 10 0l310 185q5 3 5 9v373q0 6 -5 9l-310 190q-5 3 -10 0l-310 -190q-5 -3 -5 -9v-373q0 -6 5 -9l80 -48q35 -16 55 -5.5t20 34.5v368q0 9 9 9h46q9 0 9 -9v-368q0 -48 -26.5 -75t-71.5 -27
q-33 0 -73 20l-84 50q-33 20 -33 60v379q0 40 33 59l318 190q33 20 66 0l318 -190q33 -19 33 -59v-379q0 -40 -33 -60l-318 -190q-15 -9 -33 -9zM610 108q-89 0 -128.5 35t-39.5 84q0 9 9 9h41q8 0 9 -8q5 -33 29.5 -47.5t79.5 -14.5q94 0 94 57q0 13 -5.5 20t-30.5 14.5
t-75 12.5q-71 8 -105.5 29.5t-34.5 71.5t38 77.5t106 27.5q151 0 158 -102q1 -4 -2 -7t-7 -3h-41q-7 0 -9 7q-7 26 -29 36.5t-70 10.5q-26 0 -43.5 -4t-25 -11.5t-10 -14t-2.5 -15.5q0 -13 6.5 -19.5t29 -12t72.5 -12.5q79 -11 111.5 -32t32.5 -71q0 -55 -42 -86.5
t-116 -31.5v0z" />
    <glyph glyph-name="uniE61D" unicode="&#xe61d;" 
d="M783 684h-1v57q0 12 -8 20t-20 8t-20.5 -8t-8.5 -20v-57h-99v57q0 12 -8.5 20t-20 8t-20 -8t-8.5 -20v-57h-100v57q0 12 -8 20t-20 8t-20.5 -8t-8.5 -20v-57h-99v57q0 12 -8.5 20t-20 8t-20 -8t-8.5 -20v-57h-15q-41 0 -70 -29t-29 -70v-656q0 -41 29 -69.5t70 -28.5h542
q41 0 70 28.5t29 69.5v656q0 41 -29 70t-70 29zM241 627h15v-71q0 -12 8.5 -20t20 -8t20 8t8.5 20v71h99v-71q0 -12 8.5 -20t20.5 -8t20 8t8 20v71h100v-71q0 -12 8.5 -20t20 -8t20 8t8.5 20v71h99v-71q0 -12 8.5 -20t20.5 -8t20 8t8 20v71h1q17 0 29.5 -12t12.5 -30v-143
h-626v143q0 18 12.5 30t29.5 12zM783 -112h-542q-17 0 -29.5 12t-12.5 29v485h626v-485q0 -17 -12.5 -29t-29.5 -12zM768 87q-6 0 -10 -4.5t-4 -10.5v-45q0 -31 -9.5 -49.5t-25.5 -18.5h-234q-6 0 -10 -4.5t-4 -10t4 -10t10 -4.5h234q29 0 46 26.5t17 70.5v45q0 6 -4 10.5
t-10 4.5zM761 154q-4 -4 -4 -10t4 -10t10 -4t10 4q5 4 5 10t-5 10q-10 10 -20 0z" />
    <glyph glyph-name="uniE61E" unicode="&#xe61e;" horiz-adv-x="1396" 
d="M1386 278l-304 -305q-9 -9 -22 -9t-22 9l-43 44q-9 9 -9 21.5t9 21.5l239 239l-239 240q-9 9 -9 21.5t9 21.5l43 44q9 9 22 9t22 -9l304 -305q9 -9 9 -21.5t-9 -21.5zM569 -210l-56 16q-11 3 -17.5 13t-3.5 20l247 952q3 11 14 16.5t23 2.5l60 -16q12 -4 18.5 -14
t3.5 -21l-255 -951q-3 -10 -13 -15.5t-21 -2.5zM358 -27q-9 -9 -21.5 -9t-22.5 9l-304 305q-9 9 -9 21.5t9 21.5l304 305q10 9 22.5 9t21.5 -9l44 -44q9 -9 9 -21.5t-9 -21.5l-240 -240l240 -239q9 -9 9 -21.5t-9 -21.5z" />
    <glyph glyph-name="uniE61F" unicode="&#xe61f;" 
d="M839 195h3h-691v411q0 40 20 62t62 22h528q43 0 61 -24.5t17 -63.5v-407zM768 622h-549v-306l549 -1v307zM543 255q0 14 -18 16h-60q-18 0 -18 -16q0 -5 5 -9.5t13 -5.5l58 1q8 0 14 4.5t6 9.5zM823 140q11 0 14 -7q4 -7 12 -19q4 -7 15 -24q2 -5 22 -38q16 -25 23 -37
q11 -18 15 -23q7 -13 13 -24q5 -11 -8 -27q-25 -30 -43.5 -36.5t-27.5 -6.5h-37h-84h-116h-130h-130h-115q-52 1 -83 1h-36q-8 0 -16 4q-8 3 -17 10q-9 6 -16 13q-8 8 -13 14q-7 9 -9 16t-0.5 12t5 10t7.5 12q4 5 13 21q10 15 20 33l24 37q10 18 18 30.5t13 19t11 8.5t13 1
h17h626zM870 -39q0 7 -5.5 11t-12.5 4h-707q-7 0 -13.5 -4.5t-6.5 -11t5.5 -11.5t12.5 -5h708q7 0 13 5t6 12z" />
    <glyph glyph-name="uniE620" unicode="&#xe620;" 
d="M336 395q-18 0 -29 -2v-185q5 -1 22 -1q45 -1 71 24t26 75q0 43 -24 66t-66 23zM625 730h-232q-87 0 -160.5 -42.5t-116.5 -116.5t-43 -161v-231q0 -88 43 -161.5t116.5 -116.5t160.5 -43h232q87 0 160.5 43t116.5 116.5t43 161.5v231q0 87 -43 161t-116.5 116.5
t-160.5 42.5zM447 193q-44 -36 -131 -36q-43 0 -73 4v277q40 7 86 7q76 0 116 -31q48 -35 48 -106q0 -75 -46 -115zM763 160h-60l-19 71q-7 27 -13 64h-1q-5 -34 -13 -63l-21 -72h-60l-60 205h65l17 -85q8 -45 11 -67h2q1 11 14 67l22 85h50l21 -82q11 -44 15 -70h1
q4 33 12 70l17 82h63z" />
    <glyph glyph-name="uniE621" unicode="&#xe621;" 
d="M421 415q-24 0 -33 -2v-105q9 -2 27 -2q32 0 50.5 15t18.5 42q0 25 -16.5 38.5t-46.5 13.5zM641 730h-228q-131 0 -223.5 -92.5t-92.5 -223.5v-228q0 -131 92.5 -223.5t223.5 -92.5h228q131 0 223.5 92.5t92.5 223.5v228q0 131 -92.5 223.5t-223.5 92.5zM531 282
q-41 -38 -116 -38q-17 0 -27 2v-127h-79v350q43 7 108 7q73 0 108 -28q38 -29 38 -82q0 -55 -32 -84zM669 113q-49 0 -83 19l14 57q31 -19 69 -19q34 0 34 21q0 10 -7.5 16t-29.5 14q-75 25 -74 77q0 37 29 61t76 24q41 0 72 -16l-14 -55q-27 15 -56 15q-30 0 -30 -21
q0 -9 8.5 -15t33.5 -15q68 -23 69 -79q0 -38 -29 -61t-82 -23z" />
    <glyph glyph-name="uniE622" unicode="&#xe622;" 
d="M619 710l67 -44l-528 -181l82 -52l537 174l68 -45l-530 -179l88 -62l525 187l81 -52l-625 -223l-368 275zM16 425l368 -276l626 224l-1 -83l-625 -229l-368 280v84zM16 258l368 -284l626 233v-75l-624 -245l-370 284v87z" />
    <glyph glyph-name="uniE623" unicode="&#xe623;" 
d="M128 727h43v-854h-43v854zM43 1h938v-42h-938v42zM256 385h128v-384h-128v384zM469 684h128v-683h-128v683zM683 513h128v-512h-128v512z" />
    <glyph glyph-name="uniE624" unicode="&#xe624;" 
d="M427 300h170l-85 179zM512 748l-448 -160l92 -544l356 -192l356 192l92 544zM688 108l-53 112h-246l-53 -112h-80l256 560l256 -560h-80z" />
    <glyph glyph-name="uniE625" unicode="&#xe625;" horiz-adv-x="1025" 
d="M1024 154q-5 38 -42 65v0q-74 52 -194 9q-18 29 -20.5 56t9.5 60q2 8 -6 11q-17 7 -48 -1q-9 -2 -10 -9q-5 -22 -18.5 -49.5t-21.5 -39.5l-30 -45q-14 27 -14.5 52t10.5 53q2 7 -4 10q-18 10 -52 0q-8 -3 -18 -24.5t-20.5 -49.5t-12.5 -32q-4 -10 -15.5 -37.5t-22 -47.5
t-23.5 -32q-11 20 0 42t21.5 50t0.5 39q-6 8 -15.5 8t-15.5 -6q3 24 -1 38q-7 21 -30 21q-45 -2 -89 -53q-10 -11 -28 -20.5t-43 -19.5t-33 -14q-14 12 -45.5 33.5t-54 38t-42 42t-20.5 50.5q-1 30 14 57.5t43 50t51.5 37t55.5 30.5q206 105 318 51q19 -10 27 -28.5t2 -38.5
q-13 -48 -58.5 -83t-101.5 -53q-58 -18 -102 -16q-16 1 -32.5 6t-26.5 10.5t-18.5 10.5t-9.5 5q-2 1 -2.5 -2t0.5 -5q16 -44 65.5 -56.5t105 1t106 37.5t75.5 49q46 47 56 108q7 37 -13 63.5t-49 40.5q-60 25 -125 25t-133.5 -21.5t-126 -53t-104.5 -69.5q-119 -98 -86 -178
q15 -34 45.5 -61t82 -58t65.5 -42q-5 -2 -25.5 -12t-29 -14.5t-26 -14.5t-27 -17.5t-21.5 -18.5t-20 -22q-31 -45 -11 -88q11 -26 42 -31.5t61 2.5t52 22q54 34 69 90q14 53 -7 99l57 29q-31 -93 10 -146q9 -12 29 -12.5t30 12.5q15 18 41 74q-3 -42 3 -56q5 -14 17 -17
t24 6q19 13 38 40.5t28 46.5t27 62t20 47q13 -44 28 -73q5 -7 -1 -14q-4 -4 -24 -23t-32 -34.5t-14 -28.5q-2 -12 11 -14q45 -9 91 22q38 26 28 71q-11 50 52 122q9 -44 28 -73q-20 -18 -29.5 -27.5t-21 -29.5t-8.5 -37q1 -11 9.5 -16.5t19.5 -3.5q51 11 79 45q8 10 10 22.5
t0 22t-7 24.5q79 22 144 0q37 -13 52 -42q21 -39 -20 -65l-8 -6q-2 -2 -1 -3q8 -6 27 6q26 16 30 43v16zM226 103q-4 -48 -46 -82q-27 -22 -53 -24q-34 -3 -35 22q-3 37 41 73.5t88 51.5q6 -22 5 -41zM432 248q-7 -43 -24 -89t-41 -67q-7 -8 -11 1q-9 27 -5.5 60t23.5 64
t48 39q5 1 8 -1t2 -7zM573 85q32 34 50 53q2 -15 -18.5 -36.5t-31.5 -16.5zM734 120q-4 -2 -9.5 -3t-6.5 1q-3 30 41 62q6 -17 -1 -34t-24 -26z" />
    <glyph glyph-name="uniE626" unicode="&#xe626;" 
d="M847 546q11 17 11 36q0 27 -18.5 45.5t-45.5 18.5q-19 0 -36 -11q-109 81 -246 81q-172 0 -294 -122t-122 -294t122 -294t294 -122t294 122t122 294q0 137 -81 246zM783.5 28.5q-53.5 -53.5 -121.5 -82.5q-72 -30 -150 -30t-150 30q-68 29 -121.5 82.5t-82.5 121.5
q-30 72 -30 150t30 150q29 68 82.5 121.5t121.5 82.5q72 30 150 30t150 -30q40 -17 75 -43q-7 -13 -7 -29q0 -27 18.5 -45.5t45.5 -18.5q16 0 29 7q26 -35 43 -75q30 -72 30 -150t-30 -150q-29 -68 -82.5 -121.5zM512 300zM320 300q0 79 56.5 135.5t135.5 56.5t135.5 -56.5
t56.5 -135.5t-56.5 -135.5t-135.5 -56.5t-135.5 56.5t-56.5 135.5z" />
    <glyph glyph-name="uniE627" unicode="&#xe627;" 
d="M896 812h-768q-53 0 -90.5 -37.5t-37.5 -90.5q2 -735 2 -788q0 -40 39 -74t87 -34h768q53 0 90.5 37.5t37.5 90.5v768q0 53 -37.5 90.5t-90.5 37.5zM833 -85h-642q-25 0 -43 17t-20 41v647q0 26 18.5 45t45.5 19h640q26 0 45 -19t19 -45v-643q0 -26 -18.5 -44t-44.5 -18z
M443 447q-20 13 -44 19q-23 6 -56 6h-141q-6 0 -6 -6v-364q0 -7 6 -7h91q7 0 7 7v112h41q21 0 37 3.5t30.5 9.5t26 14.5t21.5 17.5q16 17 24 41q9 24 9 51q0 33 -12 57t-34 39zM379 324q-3 -8 -11 -16q-4 -4 -11 -7t-14 -4q-8 -1 -19 -2h-24v96h6q20 0 32 -1q11 0 23 -6
q8 -3 14.5 -12.5t6.5 -22.5q0 -16 -3 -25zM749 319q-20 7 -37 11q-18 4 -35 8q-27 6 -36 14q-8 6 -8 17q0 7 5 13q5 7 13 10q9 4 18 6t21 2q29 0 57 -11.5t48 -28.5q2 -2 4 -2h8q7 0 7 7v83q0 4 -4 6q-26 11 -59 18t-66 7q-67 0 -112 -33q-46 -34 -46 -88q0 -40 19.5 -67
t63.5 -42q19 -7 41 -11q21 -5 39 -10q14 -3 23 -11q9 -6 9 -17q0 -10 -5 -16q-6 -6 -14 -10q-7 -3 -19 -4q-12 -2 -20 -2q-30 0 -62 12t-58 35q-2 1 -4 1h-9q-6 0 -6 -6v-87q0 -4 4 -6q27 -12 60 -20q32 -8 75 -8q74 0 119 34q45 35 45 92q0 40 -20 65q-19 25 -59 39z" />
    <glyph glyph-name="uniE628" unicode="&#xe628;" horiz-adv-x="1069" 
d="M1023 562l-12 -76q-17 141 -38 193q-14 36 -26 56t-15.5 22.5t-4.5 1.5q9 -24 13.5 -45t4.5 -29l-1 -9q-1 4 -4.5 11t-15 26.5t-26 36.5t-39 35t-52.5 27q-50 16 -93.5 22t-60 5t-24.5 -3h-3h1h2h-1l13 -2q13 -3 32 -7.5t39 -10.5t37 -14.5t23 -16.5q-52 0 -103 -15l6 -1
q6 -1 17.5 -4.5t26 -8t32 -13.5t35 -20t35 -27.5t32.5 -36.5t27 -47t18 -58q-3 5 -7 12.5t-16.5 21.5t-23.5 18q12 -41 10.5 -101.5t-14.5 -98.5q0 -2 -2 2q-12 29 -34 40q9 -64 -4 -132.5t-48 -90.5l6 27q13 54 9 53q-2 0 -8 -10q-23 -36 -48.5 -61t-48.5 -40t-50 -20.5
t-47.5 -6.5t-47 6t-42.5 13t-40 20t-34 20.5t-29 19.5q31 -7 76.5 0.5t68.5 24.5h1q5 4 14 10.5t12.5 9t11.5 7.5t10.5 5.5t9.5 4t9 2t8 -0.5q14 -3 20.5 8t-3.5 24q-15 16 -41 25.5t-58 1.5q-7 -2 -26.5 -10t-33 -12t-36 -2t-44.5 15q-54 32 -55 71q2 9 5 16q1 4 3 6.5
t4.5 5t4.5 4t5.5 3t5 2.5t5.5 3l4 1q23 -4 45 -15q1 8 0 18q2 4 -2 22q-2 17 -6 31v0v0q2 6 26 23q15 11 38 25q19 12 19.5 12.5t2.5 1.5v0q14 11 16 30v2v1v1v2v5q0 2 -1 3v0v1v0q-2 6 -35 6v0q-14 1 -45 0q-36 0 -57 46q11 65 69 97q1 1 0 1l-11 1q-63 -4 -107 -40
q-10 -8 -18 -18q-55 14 -104 2q-10 1 -22 3q-48 44 -50 91v1l-6 -6q-4 -4 -14 -18.5t-17.5 -33t-12 -49.5t-1.5 -67q-1 -4 -1 -6q-23 -31 -25 -45q-25 -51 -41 -142q8 27 25 57q-23 -73 -16 -186q1 20 7 48q7 -96 69 -202q65 -112 162 -173t214 -70q41 -3 82 0h7q48 4 94 15
q68 16 124.5 48t94.5 70.5t67.5 87t46 93t27.5 94.5t15 85.5t4.5 71.5t0 47.5t-0.5 18.5z" />
    <glyph glyph-name="uniE629" unicode="&#xe629;" horiz-adv-x="1025" 
d="M1005 430l-447 447q-20 19 -47 19t-47 -19l-104 -104l79 -78q19 9 41 9q40 0 68 -28t28 -68q0 -22 -9 -41l128 -128q19 9 41 9q40 0 68 -28t28 -68t-28 -68t-68 -28t-68 28t-28 68q0 22 9 41l-128 128q-4 -2 -9 -3v-267q28 -10 46 -35t18 -56q0 -40 -28 -68t-68 -28
t-68 28t-28 68q0 31 18 56t46 35v267q-28 10 -46 34.5t-18 55.5q0 22 9 41l-78 79l-296 -296q-19 -20 -19 -47t19 -47l447 -447q20 -19 47 -19t47 19l445 445q19 20 19 47t-19 47z" />
    <glyph glyph-name="uniE62A" unicode="&#xe62a;" 
d="M593 384q0 -39 -25.5 -66.5t-62 -27.5t-62 27.5t-25.5 66.5t25.5 66.5t62 27.5t62 -27.5t25.5 -66.5zM815 546l-13 -41h-7l-7 7h-7l-6 7h-21l-6 7h-14l-13 6h-14l-13 7h-34l-13 7h-34l-14 7h-94v47h88l13 -7h41l6 -7h41l7 -7h20l13 -6h14l6 -7h21l6 -7h14l7 -7h6z
M984 384h-41v13l-7 7v7l-13 13v7h-7v7l-7 7h-6v6h-7l-14 14h-6l-14 13h-7l-6 7h-7l-7 7h-7l-6 7h-14l-6 6l13 41h7l13 -7h7l7 -7h13l14 -13h6l14 -14h7l20 -20h7l20 -20v-7h7l6 -7v-6l7 -7v-7l7 -7v-13l7 -7v-20zM802 209l-7 40l7 7h6l14 7h7l13 13h7l7 7h13l27 27h7l7 7v6
h6l7 7v7h7v7l7 6v7h6v27h41v-34h-7v-13l-7 -7v-7l-13 -13v-7l-14 -13h-6v-7l-21 -20h-6l-14 -14l-13 -6h-7l-14 -14h-13l-14 -13h-13l-7 -7h-13zM505 162v47h108l13 7h34l14 6h33l7 7h14l13 7h14l6 7h14l7 6h13l7 -40l-7 -7h-7l-7 -7h-13l-13 -6h-14l-13 -7h-14l-7 -7h-40
l-7 -7h-54l-6 -6h-95zM209 209l13 40h7l7 -7h13l7 -6h20l7 -7h13l7 -7h27l14 -7h47l7 -6h107v-47h-101l-6 6h-54l-7 7h-27l-14 7h-13l-13 7h-14l-7 6h-20l-7 7h-6zM34 384h40v-27h7v-7l7 -6v-7h6v-7l21 -20h6v-7l7 -7h7l13 -13h7l7 -7h7l13 -13h14l6 -7h7l13 -7l-13 -40h-13
l-7 6h-14l-13 14h-7l-13 7l-7 6h-7l-20 21h-7l-27 27v6h-7l-13 14v7l-7 6v7l-7 7v13l-6 7v27zM195 546l14 -41l-7 -6h-7l-6 -7h-14l-7 -7h-6l-14 -13h-7l-6 -7h-7v-7l-7 -7h-7l-6 -6v-7h-7l-14 -14v-6l-6 -7v-7h-7v-20h-41v20l7 7v13l7 7v7l7 7v6h6l7 7v7l14 13h6v7l14 13h7
l13 14h7l7 7l13 6h7l13 14h14l7 7h6zM505 600v-48h-87l-14 -6h-40l-7 -7h-27l-13 -7h-27l-7 -7h-20l-7 -6h-7l-7 -7h-20l-7 -7h-6l-14 41l7 6h13l7 7h14l13 7h7l7 7h20l7 6h33l7 7h27l13 7h41l13 7h81zM532 768l27 -40h-7l-13 -14v-7l-47 -47v-13l-27 -27l-7 -14l-13 -13
v-14l-14 -13l-7 -14l-13 -13v-14l-7 -6l-7 -14l-6 -7l-7 -13v-7l-7 -13l-40 27l6 6l7 14l7 7l7 13l6 7v13l7 7l7 14l7 6l7 14l6 7l7 13l13 14v13l21 20l6 14l34 33l7 14l7 7v6zM748 849l-20 -41h-7l-7 7h-27l-7 -7h-13l-7 -6h-7l-6 -7h-7l-7 -7h-7l-13 -13h-7l-47 -47
l-27 40l27 27l13 7h7l20 20h7l14 13h6l7 7h7l7 7h6l7 7h27l7 6h20l7 -6h13l7 -7h7zM788 586l-40 7l7 13v41l6 7v74l-6 6v27h-7v21h-7v13h-7v7h-6v7l20 40v-7h7l13 -13v-7h7v-7l7 -7v-6l6 -7v-14l7 -13v-27l7 -13v-75l-7 -13v-47zM674 269l-34 27l13 14v13l7 7l7 14v6l7 14
l6 7v13l7 7l7 13v7l7 7v13l6 7v13l7 7v7l7 13v7l7 14v6l6 7v20l7 7v20l7 7v27l40 -7v-20l-6 -7v-20l-7 -13v-14l-7 -13v-7l-7 -14v-6l-6 -7v-14l-7 -6v-14l-7 -6v-14l-7 -7v-13l-6 -7l-7 -13v-7l-7 -14l-7 -6v-14l-6 -7l-7 -13v-7l-7 -13l-7 -7zM492 0l-27 34l47 47v7l7 6
l7 14l20 20v7l6 7l7 13l14 14l6 13v7l7 6l7 14l13 13l7 14v7l7 13l7 7l6 13v7l7 14l34 -27v-7l-7 -14l-7 -6l-6 -14l-7 -7v-13l-7 -7l-7 -13l-6 -7l-7 -13l-7 -7v-7l-7 -13l-13 -14l-7 -13l-20 -21v-13l-40 -41l-7 -13l-7 -7v-6l-7 -7h-7zM269 -88l21 41h6l7 -7h27l7 7h13
l7 7h14l6 6h7l7 7h7v7l6 7h7l14 6l40 41l27 -34l-7 -13l-13 -7l-21 -20h-6l-20 -21l-14 -6h-7l-6 -7h-7l-7 -7h-7l-6 -7h-7l-7 -6h-20l-7 -7h-27l-7 7h-13l-7 6h-7zM222 162l41 -14v-27l-7 -6v-88l7 -7v-27l6 -7v-13h7v-7l14 -13l-21 -41l-26 27v7l-7 7v7l-7 6v14l-7 7v27
l-6 13v88l6 13v34zM337 492l40 -27l-7 -7l-6 -13l-7 -7v-14l-7 -6l-7 -14v-13l-6 -7l-7 -14v-6l-7 -14l-7 -7v-13l-6 -7v-13l-7 -7v-13l-7 -7v-14l-7 -6v-14l-6 -7v-20l-7 -7v-20l-7 -7v-20l-7 -7v-13l-40 13l7 7v27l7 14v20l6 7v13l7 7v13l7 7v14l7 6v14l6 6v14l7 7v13
l7 14v6l7 14l6 7v13l7 7l14 27v7l13 26l7 7v14zM222 593l41 13l6 -6v-27l7 -14v-13l7 -14v-7l7 -13v-14l6 -13v-7l7 -13v-7l7 -13v-7l7 -14l6 -6v-14l7 -7v-13l7 -7l7 -13v-7l6 -14l7 -6v-14l7 -7l7 -13l7 -7l-34 -27l-7 14l-7 7l-6 13l-7 7v13l-7 14l-7 6v14l-6 7l-7 13v7
l-14 27v7l-6 13v7l-7 13v7l-7 14v6l-7 14v6l-6 14v20l-7 7v20l-7 7v20zM269 849l21 -41v-6h-7v-7h-7v-7l-7 -7v-13h-6v-27l-7 -7v-81l7 -6v-41l-41 -13v47l-6 7v94l6 7v27l7 6v14l7 7v6l13 14v7zM269 849zM492 755l-27 -34l-54 54h-7l-13 13h-7l-7 7h-7l-6 7h-14l-7 6h-20v7
h-13l-7 -7h-13l-21 41h14v7h67l7 -7h7l6 -7h7l7 -7h7l6 -6h14l20 -21h7l13 -13l14 -7l20 -20l7 -14v1zM674 492l-34 -27l-7 13v7l-7 14l-13 13v13l-7 7l-6 14l-14 13v14l-20 20l-7 13v7l-27 27l-7 14v6l-40 41v6l-7 7h-7l-6 7l27 34l6 -7h7l27 -27v-14l41 -40l6 -13v-7
l14 -14l6 -13l14 -14l7 -13v-7l6 -7l7 -13l14 -14v-13l6 -7l7 -13l7 -7l7 -13v-7zM640 465zM795 168l-40 -6v6l-7 14v13l-7 7v20l-7 14v13l-6 14v7l-7 6v14l-7 6v14l-7 7v13l-13 14v13l-7 7v13l-7 7l-6 14v6l-7 14l-7 7l-7 13v7l-6 13l-7 7l33 27l7 -14l7 -6l7 -14v-7l6 -13
l7 -7l7 -13v-14l7 -6l6 -14v-7l7 -13l7 -7v-13l7 -7v-14l6 -6v-14l7 -7v-13l7 -7v-13l7 -7v-20l7 -7v-13l6 -7v-27zM748 -88l-20 41v7h6v6h7v7l7 7v7l7 6v27l6 7v94l-6 7v34l40 7v-34l7 -7v-108l-7 -6v-27l-7 -7v-14l-7 -6v-7l-6 -7v-7zM748 -88zM539 -7l27 34l47 -47h7
l7 -7h6l7 -7h7l7 -6h6v-7h21l6 -7h34v7h7l20 -41h-7l-7 -6h-13l-7 -7h-27l-6 7h-21l-6 6h-14l-7 7h-6l-7 7h-7l-13 13h-7zM344 269l33 27l7 -13v-14l7 -6l7 -14l13 -13v-14l7 -6l7 -14l6 -7l7 -13l13 -14l7 -13v-7l14 -13l6 -14l34 -33v-7l54 -54l-27 -34l-74 74l-7 14
l-13 13v7l-7 13l-13 14l-7 13l-14 14l-6 13l-7 7l-7 14l-7 6v14l-6 7l-7 13l-7 7l-13 27v6z" />
    <glyph glyph-name="uniE62B" unicode="&#xe62b;" 
d="M894 819h-764q-23 0 -40 -16.5t-17 -39.5v-758q0 -23 17 -39.5t40 -16.5h764q23 0 40 16.5t17 39.5v758q0 23 -17 39.5t-40 16.5zM440.5 221.5q-45.5 -48.5 -122.5 -48.5h-79v424h79q86 0 127 -49.5t41 -163.5t-45.5 -162.5zM747 168h-46l-42 317h-5l-42 -317h-47
l-51 429h51l26 -270h5l35 270h51l35 -270h5l25 270h51zM318 550h-26v-330h26q56 0 84 36t28 128t-28 129t-84 37z" />
    <glyph glyph-name="uniE62C" unicode="&#xe62c;" horiz-adv-x="3313" 
d="M565 374q0 16 -14 22l-211 123q-7 4 -11 4h-2q-4 0 -11 -4l-214 -122q-13 -6 -13 -22v-328q0 -9 6 -12q7 -3 13 0l126 73q14 10 14 22v153q0 13 13 22l54 32q7 3 13 3t13 -3l54 -32q13 -6 13 -22v-153q0 -13 13 -22l125 -73q7 -4 13 0q6 3 6 11v328zM565 374zM1695 825
q-7 3 -13 0t-6 -12v-324q0 -4 -4 -8q-3 -3 -9 0l-54 30q-13 6 -26 0l-212 -123q-13 -6 -13 -22v-245q0 -12 13 -22l212 -122q13 -6 26 0l211 122q13 6 13 22v611q0 16 -13 22zM1674 203q0 -1 -4 -6l-72 -42q-3 -3 -6 0l-72 42q-4 4 -4 6v84q0 1 4 6l72 43q3 2 6 0l72 -43
q4 -4 4 -6v-84zM1674 203zM2452 291q13 6 13 21v60q0 12 -13 22l-210 120q-13 6 -26 0l-211 -122q-13 -6 -13 -22v-245q0 -16 13 -22l209 -121q12 -5 26 0l129 71q7 4 7 11q0 9 -6 12l-213 122q-6 3 -6 11v77q0 8 6 11l66 39q7 3 13 0l67 -39q6 -3 6 -11v-60q0 -8 6 -11
t13 0zM2452 291zM949 517q13 6 26 0l211 -122q13 -6 13 -22v-245q0 -12 -13 -22l-211 -122q-13 -6 -26 0l-212 122q-13 6 -13 22v244q0 13 13 22zM949 517zM2864 -19q-13 0 -21 6l-66 39q-10 6 -2 9q12 3 30 13h6l52 -29q3 -3 6 0l200 115q4 3 4 6v226q0 2 -4 6l-202 116
q-2 2 -6 0l-200 -116q-3 -3 -3 -6v-230q0 -1 3 -6l54 -31q22 -10 35 -2.5t13 22.5v229q0 6 6 6h26q6 0 6 -6v-228q0 -29 -15.5 -46t-43.5 -17q-20 0 -46 13l-53 30q-20 12 -20 37v229q0 26 20 37l200 116q22 13 43 0l200 -115q20 -12 20 -37v-230q0 -26 -20 -37l-200 -115
q-17 -4 -22 -4zM2864 -19zM2925 139q-59 0 -82.5 21.5t-23.5 52.5q0 6 6 6h26q6 0 6 -6q3 -21 17 -30t52 -9q32 0 45.5 7t13.5 24q0 11 -13 17.5t-57 12.5q-46 5 -67.5 17.5t-21.5 43.5t23.5 48t66.5 17q96 0 101 -71q0 -4 -2 -4q-2 -1 -4 -1h-26q-6 0 -6 3q-4 21 -17.5 29
t-45.5 8q-52 0 -52 -28q0 -11 11.5 -16t57.5 -12q49 -6 70 -19t21 -44q-1 -31 -27 -49t-72 -18zM2925 139zM2225 302h6l41 -25q2 0 2 -3v-46l-2 -4l-41 -24h-6l-41 24q-2 0 -2 4v46l2 3zM2225 302zM3242 457q0 -15 -11.5 -27t-27.5 -12t-28 11.5t-12 27.5q0 17 12 28t28 11
q17 -1 28 -12t11 -27zM3172 457q0 -13 9 -22t22 -9q14 0 23 9.5t9 21.5q0 14 -9.5 23t-22.5 9q-12 0 -21.5 -9.5t-9.5 -22.5zM3190 478h15q15 0 15 -11q0 -4 -1.5 -6t-4.5 -3l-2 -2q5 0 7 -8q1 -1 1 -2q0 -2 1 -6l1 -5h-10q0 1 -0.5 4t-0.5 6l-1 3q0 3 -3 3h-8v-16h-9v43v0z
M3197 460h8q8 0 8 6t-6 6h-8v-12h-2zM3197 460z" />
    <glyph glyph-name="uniE62D" unicode="&#xe62d;" horiz-adv-x="2570" 
d="M2318 48l-337 430v-430h-196v758h191l336 -410v410h198v-758h-192zM1321 23q-102 0 -188.5 54.5t-137 148.5t-50.5 205t50.5 205t137 148.5t188.5 54.5t188.5 -54.5t137 -148.5t50.5 -205t-50.5 -205t-137 -148.5t-188.5 -54.5zM1331 651q-82 0 -140 -61.5t-58 -148
t58 -148t140 -61.5t140 61.5t58 148t-58 148t-140 61.5zM570 2l-105 188q2 2 16.5 0.5t40 3t50.5 11.5t48.5 25.5t33 43.5t-1 56t-33 60t-46.5 56.5t-43.5 54.5t-22.5 45q-4 53 9 97.5t36 74t53.5 52.5t59.5 35.5t56 20.5t41 10.5t17 2.5l83 -167q-5 1 -12.5 3t-28.5 2.5
t-38.5 -4t-37 -21t-29.5 -43.5q-7 -30 4.5 -59t33.5 -55.5t45.5 -53.5t42 -65.5t20.5 -80.5q6 -151 -171 -245q-64 -34 -121 -48zM63 65q4 2 11 6.5t25 22.5t32 40t25 59.5t11 80.5v532h230v-553q1 -6 2.5 -17t-1.5 -46.5t-15.5 -72.5t-46 -92t-85.5 -107q0 -1 -47 35.5
t-94 74.5zM63 65z" />
    <glyph glyph-name="uniE62E" unicode="&#xe62e;" 
d="M993 190h-119v-119q0 -8 -5.5 -13.5t-13.5 -5.5t-14 5.5t-6 13.5v119h-118q-8 0 -14 5.5t-6 13.5t6 14t14 6h118v118q0 8 6 14t14 6t13.5 -6t5.5 -14v-118h119q8 0 13.5 -6t5.5 -14t-5.5 -13.5t-13.5 -5.5zM325 300l-31 86h-100l-32 -88q-3 -8 -10.5 -11t-15 0
t-10.5 10.5t0 15.5l101 279q3 8 10.5 11t14.5 0q13 -5 12 -19l97 -269q3 -8 0 -15t-10.5 -10.5t-15 0t-10.5 10.5zM244 525l-36 -99h72zM421.5 288q-8.5 0 -14 6t-5.5 14v157v118q0 9 5.5 14.5t13.5 5.5h119q8 0 13.5 -5.5t5.5 -14.5v-118q0 -8 -5.5 -13.5t-13.5 -5.5h-99
v-138q0 -8 -5.5 -14t-14 -6zM461 485h39q8 0 14 5.5t6 14.5v39q0 8 -6 14t-14 6h-39q-8 0 -14 -6t-6 -14v-39q0 -9 6 -14.5t14 -5.5zM835 662q0 8 -6 14t-14 6h-748q-8 0 -14 -6t-6 -14v-433q0 -8 6 -14t14 -6h551v-39h-572q-16 0 -27.5 11.5t-11.5 27.5v473q0 16 11.5 27.5
t27.5 11.5h789q16 0 27.5 -11.5t11.5 -27.5v-276h-39v256zM599 308v157v118q0 9 5.5 14.5t13.5 5.5h119q8 0 13.5 -5.5t5.5 -14.5v-118q0 -8 -5.5 -13.5t-13.5 -5.5h-99v-138q0 -8 -5.5 -14t-14 -6t-14 6t-5.5 14zM638 505q0 -9 6 -14.5t14 -5.5h39q8 0 14 5.5t6 14.5v39
q0 8 -6 14t-14 6h-39q-8 0 -14 -6t-6 -14v-39z" />
    <glyph glyph-name="uniE62F" unicode="&#xe62f;" 
d="M377 249h270v270h-270v-270zM512 465q17 0 29.5 -12.5t12.5 -30t-12.5 -30t-29.5 -12.5t-29.5 12.5t-12.5 30t12.5 30t29.5 12.5zM425 303q0 18 30.5 30t56.5 12q27 0 57 -11t30 -31v-15h-174v15zM512 831q-91 0 -173.5 -35.5t-142.5 -95.5t-95.5 -142.5t-35.5 -173.5
t35.5 -173.5t95.5 -142.5t142.5 -95.5t173.5 -35.5t173.5 35.5t142.5 95.5t95.5 142.5t35.5 173.5t-35.5 173.5t-95.5 142.5t-142.5 95.5t-173.5 35.5zM685 249q0 -16 -11 -27t-27 -11h-270q-16 0 -27 11t-11 27v270q0 16 11 27t27 11h270q16 0 27 -11t11 -27v-270z" />
    <glyph glyph-name="uniE630" unicode="&#xe630;" 
d="M504 610h12h445q-62 129 -184.5 207.5t-270.5 78.5q-107 0 -202.5 -42.5t-166.5 -117.5l157 -275q23 66 80.5 107.5t129.5 41.5zM359 388q0 -60 42.5 -102.5t102.5 -42.5t102.5 42.5t42.5 102.5t-42.5 102.5t-102.5 42.5t-102.5 -42.5t-42.5 -102.5zM548 171
q-21 -5 -44 -5q-58 0 -107.5 28t-79.5 75l-1 -1l-230 404q-86 -128 -86 -282q0 -182 115 -321t289 -174l-11 6zM991 533h-320q55 -62 55 -145q0 -63 -34 -117l-222 -385q20 -2 36 -2q103 0 196.5 40t161.5 108t108 161.5t40 196.5q0 73 -21 143z" />
    <glyph glyph-name="uniE631" unicode="&#xe631;" 
d="M750 753h-575q-11 0 -19.5 -8t-8.5 -20v-757q0 -12 8.5 -20t19.5 -8h407v168q0 12 8 20t20 8h168v589q0 12 -8 20t-20 8zM597 420h-8q-2 28 -8.5 40.5t-20.5 19.5q-8 4 -29 4h-23l-41 -233q-4 -23 -2.5 -29t8.5 -10.5t20 -4.5h10l-2 -8h-158l1 8h10q14 0 22 5q7 3 11 11
q4 5 8 28l41 233h-22q-30 0 -46 -13q-23 -18 -34 -51h-9l15 82h272zM616 76v-141l168 169h-140q-11 0 -19.5 -8.5t-8.5 -19.5zM840 833h-585q-17 0 -29.5 -12.5t-12.5 -29.5h585q12 0 20 -8.5t8 -19.5v-586q18 0 30 12.5t12 29.5h1v586q0 11 -8.5 19.5t-20.5 8.5zM665 291z
" />
    <glyph glyph-name="uniE632" unicode="&#xe632;" 
d="M146 896q-34 0 -58 -23.5t-24 -56.5v-862q0 -34 24 -58t58 -24h732q34 0 58 24t24 58v617l-302 325h-512zM960 570v-16h-205q-4 0 -10.5 2t-24 10.5t-30.5 19.5t-23.5 31.5t-10.5 44.5q0 -3 1 -9.5t7 -22.5t15 -28t29 -22t46 -10h206zM658 896v-234q0 -11 4 -25t14 -30
t30.5 -26.5t48.5 -10.5h205zM374 35q-6 0 -9 3l-59 80l-60 -80q-3 -3 -9 -3q-11 0 -11 11q0 5 1 7l63 81l-58 79q-2 1 -2 6q0 4 3.5 7.5t8.5 3.5q4 0 9 -4l55 -74l54 74q5 4 10 4q11 0 11 -11q0 -5 -2 -6l-57 -77l62 -83q2 -2 2 -7q0 -11 -12 -11zM605 35q-11 0 -11 11v149
l-64 -157q-4 -3 -7 -3t-6 3l-64 157v-149q0 -11 -11 -11q-13 0 -13 11v165q0 8 6 13.5t15 5.5q14 0 19 -12l54 -135l55 135q5 12 19 12q8 0 14.5 -5.5t6.5 -13.5v-165q0 -11 -13 -11zM774 37h-88q-7 0 -12 5t-5 12v165q0 5 4 8t9 3q11 0 11 -11v-161h81q4 0 7 -3t3 -7
q0 -5 -3 -8t-7 -3z" />
    <glyph glyph-name="uniE633" unicode="&#xe633;" 
d="M826 381q-33 -60 -57 -91.5t-39 -34.5q-9 -1 -14.5 3.5t-6.5 12.5q-4 21 22.5 52t73.5 59l6 15q-9 -9 -18 -14t-18 -6.5t-15 2.5t-7 12q-2 9 3 21.5t17 26.5q3 3 8 10q17 19 16 22q0 1 -1.5 2t-3.5 0q-3 0 -8.5 -4t-12.5 -11q-10 -10 -19.5 -22t-11.5 -12q-1 0 -2.5 1
t-1.5 2q-1 2 4 8.5t12 14.5q16 17 27.5 26t21.5 11q6 1 10 -2t5 -10q2 -7 -1.5 -15t-16.5 -25q-5 -7 -12 -16q-18 -23 -17 -28q1 -2 3.5 -3t5.5 -1q7 2 14.5 7.5t16.5 16.5l47 58q7 9 14 16.5t14 14.5l4 1q5 1 7.5 0.5t2.5 -2.5t-24 -36.5t-45 -71.5q18 6 33.5 16t31.5 26
q10 10 20 22t11.5 12t2.5 -0.5t1 -2.5q1 -3 -6 -11.5t-19 -21.5q-18 -18 -37 -30.5t-41 -19.5zM798 367q-40 -27 -61.5 -52t-18.5 -41q1 -5 4 -8t7 -2q10 2 26.5 26.5t42.5 76.5zM213 399l-5 -12q-19 -7 -26 -13q-15 -54 -30 -80.5t-32 -30.5q-9 -3 -15 0t-8 11
q-4 18 13.5 44t52.5 55q6 20 11 36t10 30q-8 -10 -16.5 -22t-9.5 -13q-1 0 -2 0.5t-1 1.5q-1 4 10.5 19.5t29.5 33.5q1 1 2.5 1.5t3.5 0.5q5 2 9 1.5t5 -1.5q0 -1 -11 -24.5t-19 -50.5zM160 359q-28 -23 -43 -46.5t-11 -38.5q1 -4 4 -5.5t7 0.5q11 2 21.5 24t21.5 66z
M482 406h27l-12 -59q-3 -10 -3 -13q0 -4 3.5 -7t8.5 -3q3 0 6.5 1t7.5 4t6.5 6.5t5.5 9.5q2 4 4 14l10 47h27l-21 -99h-25l2 13q-16 -16 -36 -16q-12 0 -19 7t-7 19q0 5 3 21zM666 348h-67v-2q0 -10 5.5 -16t13.5 -6q14 0 21 14l24 -5q-7 -14 -18.5 -21.5t-26.5 -7.5
q-20 0 -32.5 13t-12.5 34q0 20 11 36q16 22 44 22q19 0 29.5 -11.5t10.5 -31.5q0 -10 -2 -18zM644 365v2q0 11 -5 17t-13.5 6t-15 -6.5t-9.5 -18.5h43zM686 406h25l-4 -19q14 22 31 22q5 0 12 -3l-10 -22q-4 1 -8 1q-7 0 -14 -5t-11 -14t-8 -28l-7 -31h-27zM488 446
q6 2 11 5l4 18h-10l1 6h10l3 15h6l-3 -15h10l-1 -6h-10l-3 -15l10 4q-1 -4 -1 -6q-9 -5 -10 -5l-6 -28q-2 -9 -9 -9h-7v7q4 -1 7 -1t3 4l5 24q-5 -3 -11 -5zM537 452q-7 -2 -15 -4l-2 -11h13l-1 -5h-13l-2 -13h16l9 44h-24l1 6h24l2 10q-10 -1 -21 -1v6q26 0 50 3v-6
q-10 -1 -23 -2l-2 -10h26l-2 -6h-25l-9 -44h16l3 13h-13l1 5h13l2 12h-13l1 5h19l-9 -45h-6l1 5h-38l-1 -5h-6l8 43q10 3 18 6zM568 449q15 17 27 41l6 -2q-5 -10 -10 -18l-12 -61h-7l10 47q-6 -8 -12 -14q-1 3 -2 7zM592 444h29l4 21h-16q-5 -9 -10 -16q-2 2 -5 4
q11 14 18 31l6 -2q-3 -6 -6 -11h14l4 19h6l-3 -19h19l-1 -6h-20l-4 -21h23l-1 -6h-23l-6 -28h-6l6 28h-29zM694 488l6 3q3 -3 6 -8l-4 -2h34l-1 -6h-67l-4 -24q-6 -28 -19 -42q-2 2 -4 5q11 12 16 36l6 31h36q-2 3 -5 7zM661 430h32l1 9h-25l1 6q6 6 11 14h-12l1 6h15
q3 4 6 9l6 -2q-2 -4 -5 -7h36l-1 -6h-39q-5 -8 -10 -14h17l3 11h6l-2 -11h23l-2 -6h-22l-2 -9h27l-2 -5h-26l-3 -16h-7l3 16h-31zM318 420q-10 0 -17.5 -7t-7.5 -17t7.5 -17.5t17.5 -7.5t17 7.5t7 17.5t-7 17t-17 7zM328 385q-5 0 -8.5 3.5t-3.5 8.5t3.5 8.5t8.5 3.5
t8.5 -3.5t3.5 -8.5t-3.5 -8.5t-8.5 -3.5zM374.5 419q-10.5 0 -17.5 -7t-7 -17.5t7 -17.5t17.5 -7t17.5 7t7 17.5t-7 17.5t-17.5 7zM384 385q-5 0 -8.5 3.5t-3.5 8.5t3.5 8.5t8.5 3.5t8.5 -3.5t3.5 -8.5t-3.5 -8.5t-8.5 -3.5zM686 295h-285q45 33 62 79.5t-2 83.5q-1 6 -7 10
v1q0 9 -7 13q-2 2 -4 2q-1 6 -6 10q-7 4 -14 1q-1 7 -6 10q-9 6 -17 0q-1 3 -3 6q-10 10 -20 0q-3 -2 -4 -5l-2 4q-10 11 -20 2q-4 -3 -5 -8q-1 1 -3 2q-12 8 -20 -3q0 -1 -1 -2q-12 8 -19 -3q-2 -3 -3 -6q-10 4 -16 -5l-2 -4q-8 2 -13 -5q-3 -4 -2 -8q-7 0 -11 -6
q-3 -4 -2 -9q-5 -1 -8 -5q-2 -2 -2 -5q-33 -36 -41 -77.5t14 -72.5q29 -40 89 -36h380v36zM436 415q0 -18 -19 -30q10 33 -10 53q26 0 29 -23zM269 449q10 7 18.5 6t13.5 -5l6 -5q-13 -9 -23 -19l-18 -21q-1 3 -3.5 8t-2.5 17t9 19zM271 320.5q-18 19.5 -11.5 50.5t33 55.5
t58 27.5t49.5 -17t12 -51t-33 -55t-58.5 -27t-49.5 16.5zM375 265l3 25h3l-3 -25h-3zM383 274q0 4 3 6.5t6.5 2.5t5.5 -2.5t1.5 -6.5t-3 -6.5t-6.5 -2.5t-6 2.5t-1 6.5zM385.5 274q-0.5 -3 1 -5t4 -2t4 2t2 5t-0.5 4.5t-3.5 1.5t-4.5 -1.5t-2.5 -4.5zM402 274q1 4 3.5 6.5
t6.5 2.5t5.5 -2.5t1 -6.5t-3 -6.5t-6 -2.5t-5.5 2.5t-2 6.5zM405.5 274q-0.5 -3 0.5 -5t3.5 -2t4 2t2 5t-0.5 4.5t-3.5 1.5t-4 -1.5t-2 -4.5zM436 265h-4l-6 9l-1 -9h-3l3 25h3l-2 -15l8 7h4l-9 -8zM459 288h-2q-2 0 -3 -3v-3h4l-1 -2h-3l-2 -15h-3l2 15h-3v2h3v3
q1 3 2.5 4.5t4.5 1.5q1 0 2 -1zM458 274q1 4 3.5 6.5t6.5 2.5t5.5 -2.5t1 -6.5t-3 -6.5t-6.5 -2.5t-5.5 2.5t-1.5 6.5zM461.5 274q-0.5 -3 0.5 -5t3.5 -2t4 2t2 5t-0.5 4.5t-3.5 1.5t-4 -1.5t-2 -4.5zM489 279q-1 1 -2 1q-2 0 -3.5 -1.5t-1.5 -4.5l-1 -9h-3l2 17h3v-3
q1 4 4 4q1 0 2 -1v-3zM498 265l4 25h3l-4 -25h-3zM521 273h-11q-1 -3 0.5 -4.5t3.5 -1.5q3 0 6 2l-1 -2q-2 -2 -5.5 -2t-5.5 2.5t-1 6.5q0 4 2.5 6.5t6 2.5t5 -2.5t0.5 -5.5v-2zM519 275q0 3 -1 4t-2.5 1t-3 -1t-2.5 -4h9zM524 269q2 -2 4 -2q4 0 4 3q0 1 -0.5 1.5t-2.5 1.5
q-3 1 -3.5 2t-0.5 3t2 3.5t5 1.5q2 0 4 -1l-1 -3q-1 1 -4 1q-1 0 -2 -0.5t-1 -1.5t0.5 -1.5t2.5 -1.5q3 -1 3.5 -2t0.5 -3t-2 -3.5t-5 -1.5t-5 1zM538 269q2 -2 4 -2q4 0 4 3q0 1 -0.5 1.5t-2.5 1.5q-3 1 -3.5 2t-0.5 3t2 3.5t5 1.5q2 0 4 -1v-3q-2 1 -4 1t-3 -0.5t-1 -1.5
t0.5 -1.5t2.5 -1.5q3 -1 3.5 -2t0.5 -3t-2 -3.5t-5 -1.5t-5 1zM556 269l-4 -8h-2l3 8h3zM574 265h-3l1 3q-3 -3 -6 -3q-4 0 -5.5 2.5t-0.5 5.5q0 5 2.5 7.5t6 2.5t4.5 -3l2 10h3zM573 275q0 2 -1 3.5t-3 1.5q-3 0 -4.5 -1.5t-1.5 -4.5q-1 -3 0.5 -5t3.5 -2t3.5 2t1.5 4z
M580 274q0 4 2.5 6.5t6.5 2.5t6 -2.5t1 -6.5t-3.5 -6.5t-6 -2.5t-5.5 2.5t-1 6.5zM582.5 274q-0.5 -3 1 -5t4 -2t4 2t1.5 5t-1 4.5t-3.5 1.5t-4 -1.5t-2 -4.5zM632 265h-3l1 10q1 3 0 4t-3 1q-1 0 -2.5 -1.5t-1.5 -3.5l-2 -10h-2l1 10q1 5 -3 5q-2 0 -3 -1.5t-2 -3.5l-1 -10
h-3l2 17h3v-2q2 3 6 3q1 0 2.5 -1t1.5 -3q2 4 6 4q5 0 4 -7zM637 274q0 4 3 6.5t6.5 2.5t5.5 -2.5t1.5 -6.5t-3 -6.5t-6.5 -2.5t-6 2.5t-1 6.5zM639.5 274q-0.5 -3 1 -5t4 -2t4 2t2 5t-0.5 4.5t-3.5 1.5t-4.5 -1.5t-2.5 -4.5zM667 279q-1 1 -2 1q-2 0 -3 -1.5t-2 -4.5l-1 -9
h-3l3 17h3l-1 -3q2 4 5 4q1 0 2 -1zM682 273h-11q-1 -3 0.5 -4.5t3.5 -1.5q3 0 5 2v-2q-2 -2 -6 -2t-5.5 2.5t-0.5 6.5q0 4 2.5 6.5t6 2.5t5 -2.5t0.5 -5.5v-2zM680 275q0 3 -1 4t-3 1t-3 -1t-2 -4h9zM196 506q-9 3 -14 -2q-5 -4 -3 -12t9 -15q6 -6 13 -8q9 -3 14 2
q5 4 3 12t-9 15q-6 6 -13 8z" />
    <glyph glyph-name="uniE634" unicode="&#xe634;" 
d="M697 132q9 5 31.5 22t37.5 22q-31 -46 -56 -75.5t-60.5 -59.5t-80 -45.5t-99.5 -19.5q-161 -12 -311 92q-49 34 -54 39q-3 2 -3 10t-2 10q-5 4 -22.5 20.5t-31 31t-20.5 26.5q-5 7 -11 25t-9 24q-17 36 -28 83t-12 100.5t15 99.5q3 9 9 19t10.5 16.5t13 18t12.5 15.5
q3 5 13.5 18.5t17.5 23.5t13 21q-1 -16 -12 -66t-8 -90q9 -118 78 -213t169 -153q1 -1 7.5 0t7.5 0q12 -14 59 -30q69 -25 166.5 -21.5t159.5 36.5zM697 132zM766 386q-69 -153 -247 -142q-55 4 -109.5 29t-96.5 65t-71 91.5t-32.5 107t18.5 113.5q3 7 9 15.5t14 18t12 15.5
q1 1 7.5 10.5t9.5 13.5t9.5 10t12.5 10q-29 -63 -22 -123.5t40 -114t79 -93t96 -60.5q57 -25 146 -14t125 48zM766 386zM614 728q1 -41 20 -79t51.5 -64t71.5 -41.5t84 -13.5t84 22q-19 -49 -71 -69.5t-111.5 -9t-103.5 49.5q-57 48 -64.5 123.5t44.5 135.5q6 -13 5 -19
t-5.5 -17t-4.5 -18zM614 728z" />
    <glyph glyph-name="uniE635" unicode="&#xe635;" 
d="M728 -64h-435q-19 0 -32.5 13.5t-13.5 32.5v803q0 19 13.5 32.5t32.5 13.5h435q19 0 32.5 -13.5t13.5 -32.5v-803q0 -19 -13.5 -32.5t-32.5 -13.5zM511 -18q13 0 22 9t9 22t-9 22t-22 9t-22 -9t-9 -22t9 -22t22 -9zM728 739h-16h-403h-16v-649h16h403h16v649zM728 739z
" />
    <glyph glyph-name="uniE636" unicode="&#xe636;" 
d="M154 792v-153v153zM131 792h46v-153h-46v153zM154 346v-403v403zM131 346h46v-403h-46v403zM504 792v-274v274zM481 792h46v-274h-46v274zM504 217v-274v274zM481 217h46v-274h-46v274zM854 792v-383v383zM831 792h46v-383h-46v383zM854 80v-137v137zM831 80h46v-137h-46
v137zM152.5 387q-47.5 0 -81.5 33.5t-34 81t34 81t81.5 33.5t81 -33.5t33.5 -81t-33.5 -81t-81 -33.5zM152 571q-29 0 -49.5 -20.5t-20.5 -49t20.5 -49t49.5 -20.5t49.5 20.5t20.5 49t-20.5 49t-49.5 20.5zM502 262q-43 0 -73 30.5t-30 73.5t30 73.5t73 30.5t73.5 -30.5
t30.5 -73.5t-30.5 -73.5t-73.5 -30.5zM502 424q-24 0 -41 -17t-17 -41t17 -41.5t41 -17.5t41.5 17.5t17.5 41.5t-17.5 41t-41.5 17zM858 128q-42 0 -72 30t-30 72t30 71.5t72 29.5t71.5 -29.5t29.5 -71.5t-29.5 -72t-71.5 -30zM857.5 286q-23.5 0 -40 -16.5t-16.5 -40
t16.5 -40t40 -16.5t40 16.5t16.5 40t-16.5 40t-40 16.5z" />
    <glyph glyph-name="uniE637" unicode="&#xe637;" 
d="M1005 677.5q0 -20.5 -20 -34.5t-49 -14h-848q-29 0 -49 14t-20 34.5t20 34.5t49 14h848q29 0 49 -14t20 -34.5zM268 686zM173 685.5q0 39.5 28 67t67 27.5t67 -27.5t28 -67t-28 -67t-67 -27.5t-67 27.5t-28 67zM756 686zM661 685.5q0 39.5 28 67t67 27.5t67 -27.5t28 -67
t-28 -67t-67 -27.5t-67 27.5t-28 67zM981 -8q0 -22 -16 -38t-39 -16h-828q-23 0 -39 16t-16 38v490q0 23 16 39t39 16h828q23 0 39 -16t16 -39v-490zM798 172h39v139h47v33h-132v-33h46v-139zM653 315q4 1 17 1q29 0 29 -24q0 -11 -8.5 -17.5t-22.5 -6.5h-15v47zM614 172h39
v68h11q12 0 18.5 -6t9.5 -22q7 -30 12 -40h40q-1 3 -14 49q-7 25 -23 32v1q12 4 21 15t9 27q0 23 -16 36q-17 13 -55 13q-30 0 -52 -3v-170zM506.5 316q19.5 0 30.5 -16.5t11 -40.5q0 -26 -11 -42.5t-30.5 -16.5t-30.5 16t-11 42t11 42t30.5 16zM507 347q-37 0 -60 -25.5
t-23 -64.5q0 -38 22 -62.5t59 -24.5q38 0 61 24t23 66q0 37 -22 62t-60 25zM322 314q5 2 16 2q31 0 31 -26q0 -12 -9 -19.5t-25 -7.5q-8 0 -12 1v50h-1zM284 172h38v62q5 -1 14 -1q36 0 55 18q16 14 16 41q0 25 -18 39q-17 14 -53 14q-31 0 -52 -3v-170zM140 181
q19 -11 49 -11q33 0 50.5 15t17.5 38q0 35 -44 51q-18 7 -24.5 12t-6.5 12t6 12t18 5q20 0 36 -8l9 31q-18 8 -44 8q-30 0 -47.5 -14.5t-17.5 -36.5q0 -34 47 -51q29 -10 29 -24q0 -18 -27 -18q-23 0 -43 10z" />
    <glyph glyph-name="uniE638" unicode="&#xe638;" 
d="M951 501l-12 -65q-6 49 -14 90.5t-13 58.5l-5 18q-4 19 -14.5 36.5t-18.5 26.5l-8 8q8 -9 12.5 -27t3.5 -32v-13q-13 29 -30 51t-28 30l-11 8q-39 39 -85 66t-83.5 38t-69.5 17t-50 6l-17 -1q-60 2 -114.5 -12t-90.5 -35.5t-63.5 -42.5t-40.5 -36l-12 -15q-11 9 -16 23
t-5 23v9q-22 -25 -33 -61.5t-11 -61.5l1 -24l-26 -53q-6 -7 -12 -29t-9 -41l-2 -18v-10l-4 -134l6 34q9 -53 26 -99.5t33 -74t35 -50t26 -29t11 -9.5q170 -147 371 -114q57 9 93 27q62 22 111 61.5t75 79t43.5 79.5t22.5 60.5t5 23.5q15 46 21 99t4 84zM798 538
q11 -18 10.5 -55t-6.5 -75l-6 -37l-30 30q3 -51 -1 -89t-10.5 -56t-15 -29.5t-12.5 -13t-6 -2.5l13 72l-4 -13q-27 -46 -60.5 -72.5t-65.5 -32.5t-64.5 -2.5t-59.5 16.5t-48 25.5t-33 22.5l-12 10q43 -11 72.5 -8.5t45.5 11.5l15 9q18 16 34 25t23 10h7q12 -1 15.5 5t0.5 13
l-3 8q-14 17 -35 23.5t-35 4.5l-14 -3q-23 -12 -44 -17t-34.5 -3.5t-24 4t-15.5 6.5l-5 3q-27 16 -40 32.5t-12 27.5t6 20t12 13l6 4q5 2 18 -1.5t24 -8.5l11 -5q2 9 0.5 23t-4.5 27l-3 13l74 52l14 15l2 22l-3 10l-67 1q-18 -3 -30.5 6t-17.5 20l-4 11q3 22 18.5 43.5
t29.5 31.5l14 10q-30 -2 -53 -8t-35 -13.5t-19.5 -14.5t-9.5 -12l-2 -5q-37 5 -59 4t-31 -4l-8 -4l-34 37l16 -14l16 9q30 32 70.5 56t76.5 35.5t67.5 18.5t50.5 8l19 1q44 -3 80.5 -9.5t57.5 -13.5t35.5 -13.5t19.5 -10.5l5 -4q-97 13 -96 0q32 -4 63.5 -14.5t47.5 -19.5
l15 -9q-22 1 -44 -2t-33 -6l-11 -4q50 -12 88.5 -35t58.5 -48t32.5 -48.5t15.5 -38.5l4 -15q-11 25 -22 34.5t-16 7.5zM798 538z" />
    <glyph glyph-name="uniE639" unicode="&#xe639;" 
d="M274 242q14 73 79 120q13 10 77 51q71 46 94 107q32 87 -18 150q-65 83 -178 63q-71 -13 -131 -72q-25 -25 -38 -54l7 5q30 20 66 19q30 -1 52 -23.5t22 -52.5q1 -39 -23 -71q-10 -12 -63 -76q-74 -87 -60 -187q14 -109 110 -161q54 -30 132 -29q-4 2 -5 2
q-66 18 -100.5 80.5t-22.5 128.5zM636 418q31 -11 104 -51q49 -27 111 -9q10 4 9 14q0 4 -0.5 15t-0.5 16q-16 103 -112 137q-9 3 -13 15q-5 18 -17 43q-1 1 -13 17q-12 -18 -12 -19q-16 -27 -18 -70q0 -12 -8 -17q-36 -25 -40 -27q-9 -5 -92 -45q43 0 102 -19zM674 85
q-3 0 -40 7l1 7q15 45 8 97q-7 53 -41.5 93.5t-82 57.5t-92.5 7q-72 -15 -101 -82q56 51 122.5 44t101.5 -56q45 -61 22 -133q-20 -66 -97 -96q50 -1 144.5 2.5t109.5 8.5q-7 12 -7 13q-17 23 -48 30zM535 171q-1 43 -30 72.5t-73 30.5q-46 0 -74.5 -31.5t-28.5 -71.5
q0 -42 30 -72.5t73 -30.5t73 30t30 73zM431 124q-19 0 -33 14t-14 33q1 19 15 33.5t33 13.5q19 0 33 -14t14 -33q1 -20 -13.5 -33.5t-34.5 -13.5zM863 271q-7 29 -38 36q-9 3 -41 7q-48 6 -102 40q-97 62 -207 49q-1 0 -38 -10q1 -1 1 -2q23 0 25 -1q48 -5 59 -8
q95 -27 150 -122q8 -14 20 -15q31 -2 41 0q17 2 34 11q52 26 95 9l2 3q0 2 -1 3z" />
    <glyph glyph-name="uniE63A" unicode="&#xe63a;" 
d="M128 307v103q0 6 5.5 12.5t13.5 6.5h186l-83 -141h-103q-6 0 -12.5 5.5t-6.5 13.5zM262 96l-57 -38q-10 -5 -11.5 -4.5t-1.5 10.5l6 64q0 6 5 8t15 -2l44 -25v-13zM275 134l-45 26q-12 13 -6 26l211 364q13 7 19 0l45 -25q9 -5 10.5 -10.5t-3.5 -15.5l-212 -365
q0 -4 -7 -4t-12 4zM435 288l77 141h45l64 -141h-186zM691 250q-9 4 -60 113.5t-68 154.5q-5 12 -11 24t-14 29t-15 33.5t-14 34t-12 32.5t-7.5 27.5t-2 20.5t5.5 11q6 2 18 -11t29.5 -42t28.5 -49.5t31 -56.5q6 -10 8 -14q26 -41 85 -149t62 -114q9 -12 -1.5 -24.5
t-23.5 -19.5q-2 -1 -5.5 -3t-4.5 -3l-5 -1q-3 -1 -5 -1t-5 0.5t-6.5 2.5t-7.5 5zM755 154l-25 44q-4 6 -2 13t8 13l26 13q5 4 12.5 1.5t12.5 -8.5l19 -38q4 -6 2 -13t-8 -13l-19 -12q-6 -6 -11 -7t-8 0.5t-7 6.5zM851 38q-3 10 -31.5 21t-38.5 24q-23 30 6 45q56 37 64 -45
v-45zM896 307q0 -6 -5.5 -12.5t-13.5 -6.5h-90q0 13 -6 13q0 2 -1 4t-2.5 4.5t-3.5 5.5t-5.5 8t-6.5 10q-13 25 -52 89h160q6 0 13 -5t7 -14l6 -96v0z" />
    <glyph glyph-name="uniE63B" unicode="&#xe63b;" horiz-adv-x="1056" 
d="M1051 -38l-61 740q-2 18 -14.5 30t-30.5 12h-21q7 -10 7 -21l51 -665q2 -21 -10.5 -36t-30.5 -15h-838q-19 0 -31 15t-10 36l51 665q1 11 8 21h-13q-16 0 -29.5 -12.5t-14.5 -29.5l-61 -740q-2 -22 10.5 -38t31.5 -16h963q20 0 32.5 16t10.5 38zM993 162l-61 624
q-2 15 -13.5 25.5t-25.5 10.5l-749 2q-14 0 -25.5 -10.5t-12.5 -25.5l-45 -626q-1 -19 10 -32t28 -13h858q17 -1 27.5 12.5t8.5 32.5zM525 262q-54 1 -92.5 9t-57 16.5t-28.5 22t-11 19.5t-1 14q0 44 49 42q27 -2 63.5 -14t69.5 -13q28 -1 46 12t18 31q0 15 -19 24t-66 20
q-70 16 -105 44t-36 80q0 48 45.5 78t113.5 30q44 0 84 -9.5t57 -27.5q20 -23 8 -41t-41 -19q-26 0 -64.5 7.5t-43.5 8.5q-24 1 -37 -19q-15 -23 17 -37q14 -5 35 -8q45 -6 79 -19.5t52 -29t29 -33.5t14 -30t3 -22q0 -12 -1.5 -24.5t-12 -34.5t-28 -38t-54 -28t-85.5 -11z
" />
    <glyph glyph-name="uniE63C" unicode="&#xe63c;" 
d="M961 545q-4 71 -45 137t-106.5 107t-136.5 44l-33 1v-322h322zM704 576v188q66 -14 119.5 -68t68.5 -120h-188zM1020 448h-64h-1h-379v379v65q-36 4 -64 4q-104 0 -199 -40.5t-163.5 -109t-109 -163.5t-40.5 -199t40.5 -199t109 -163.5t163.5 -109t199 -40.5t199 40.5
t163.5 109t109 163.5t40.5 199q0 29 -4 64zM512 -64q-185 0 -316.5 131.5t-131.5 316.5t131.5 316.5t316.5 131.5v-384v-64h64h384q0 -185 -131.5 -316.5t-316.5 -131.5z" />
    <glyph glyph-name="uniE63D" unicode="&#xe63d;" 
d="M960 0v-64h-960v896h64v-832h896zM192 485l121 150l201 -352l296 4l87 -79l43 47l-106 96l-283 -3l-229 400l-194 -240v-380h64v357z" />
    <glyph glyph-name="uniE63E" unicode="&#xe63e;" horiz-adv-x="3414" 
d="M1089 326v-109v-113h-109h-113h-109h-113h-113h-109v113v109v113v112v109h109h113h113h109v-109v-112v-113h-109h-113v113h113v112h-113h-113v-112v-113v-109h113h113h109h113v109v113v112v109v113h-113h-109h-113h-113h-109h-112v-113v-109v-112v-113v-109v-113v-113
h112h109h113h113h109h113h109h112v113v113v109h-112zM1089 773h112v-113h-112v113zM1089 534h112v-112h-112v112zM1966 435v222h171v-167h82v167v79h-82h-249v-38v-41v-222v-41v-41h290v-228h-137v-82h137h82v82v228v21v61h-294zM1894 271h219v-82h-219v82zM1533 657h85
l-85 -222v-51v-259v-62v-20h239h47h34v310v14v68h-232l82 222h147v79h-317v-79zM1772 125h-157v232h157v-232zM2447 739h567v-79h-567v79zM3099 176q0 61 -42.5 104t-103.5 43q-80 0 -123 -65q-2 -4 -5.5 -9t-5.5 -8q-13 -23 -13 -62v-7q22 34 51 48q31 21 75 21h17h10
q5 -2 14.5 -3.5t13.5 -3.5q15 -8 24.5 -24t9.5 -34q0 -28 -19.5 -48t-45.5 -20h-3v0h-417l116 310h400v79h-629v-79h140l-116 -307v-82h512q39 3 72.5 22.5t50.5 52.5v0q5 7 14 34q3 10 3 38z" />
    <glyph glyph-name="uniE63F" unicode="&#xe63f;" 
d="M120 135q-11 0 -17 11q-9 16 7 29q22 19 92 32q78 92 172 257q94 164 135 279q-24 68 -19 97q4 20 22 20t22 -20q5 -29 -19 -97q40 -114 135 -279q94 -164 172 -257q70 -13 92 -32q16 -13 7 -29t-28 -9q-27 10 -74 65q-118 22 -307 22t-307 -22q-47 -55 -74 -65
q-6 -2 -11 -2zM827 201q43 -50 68 -59q15 -5 22 7t-6 22q-20 17 -84 30zM197 201q-63 -13 -84 -30q-13 -11 -6 -22.5t22 -6.5q25 9 68 59zM512 736q-8 -21 -19 -48q-43 -102 -115 -227q-71 -125 -137 -213q-15 -20 -31 -40q24 4 50 7q109 14 252 14t252 -14q26 -3 50 -7
q-15 18 -31 40q-66 88 -138 213q-71 126 -114 227q-12 28 -19 48zM512 855q-14 0 -17 -16q-4 -27 17 -88q21 61 17 88q-3 16 -17 16zM192 41q-8 0 -14 6q-13 13 -1 31q17 23 81 54q52 110 100 293q49 185 59 305q-40 60 -43 88q-2 21 16 26q17 5 26 -14q12 -26 6 -98
q69 -100 203 -235t232 -203q71 5 97 -7q19 -9 14.5 -26t-25.5 -16q-28 3 -88 44q-120 -10 -302 -60q-183 -49 -291 -101q-31 -65 -55 -82q-8 -5 -15 -5zM255 125q-58 -29 -74 -50q-9 -14 0.5 -24t22.5 0q22 15 51 74zM422 724q-2 -22 -6 -51q-16 -110 -53 -249
q-37 -140 -78 -242q-11 -27 -20 -46q21 9 47 20q101 41 240 78q138 38 247 53q27 4 50 6q-19 13 -40 30q-86 68 -188 171q-101 101 -169 189q-17 21 -30 41zM864 289q53 -37 80 -39q16 -1 19.5 12t-11.5 21q-24 11 -88 6zM391 839q-13 -4 -12 -20q3 -27 39 -81q4 66 -7 90
q-7 15 -20 11zM287 -32q-6 0 -11 4q-16 9 -9 29q10 27 64 74q22 119 22 309t-22 310q-54 47 -64 74q-7 20 9 29q15 9 28 -7q19 -22 32 -94q92 -78 256 -173q163 -95 276 -136q68 24 96 19q20 -4 20 -22t-20 -22q-28 -4 -96 20q-113 -41 -276 -136q-165 -97 -256 -174
q-13 -71 -31 -94q-9 -10 -18 -10zM330 66q-49 -42 -58 -67q-6 -16 6 -23t23 6q17 20 29 84zM338 688q3 -21 7 -50q13 -109 13 -254t-13 -254q-4 -29 -7 -50q17 15 40 31q88 67 211 139q124 72 225 115q26 11 47 19q-23 8 -47 19q-101 43 -225 115q-124 73 -212 139
q-21 16 -39 31zM876 384q50 -18 77 -18q5 0 10 1q16 3 16 17t-16 17q-26 4 -87 -17zM287 794q-5 0 -9 -2q-12 -7 -6 -23q9 -25 58 -68q-12 65 -29 85q-7 8 -14 8zM396 -77q-3 0 -6 1q-18 5 -16 26q3 28 43 88q-10 121 -59 305t-100 293q-64 31 -81 55q-12 17 1 30
q12 12 29 1q24 -17 55 -82q109 -52 291 -101t303 -59q59 40 87 43q21 2 25.5 -15.5t-14.5 -26.5q-26 -12 -97 -7q-99 -69 -232.5 -203.5t-202.5 -234.5q6 -72 -6 -98q-7 -15 -20 -15zM418 30q-36 -54 -39 -81q-1 -16 12 -20t20 11q11 24 7 90zM265 633q9 -20 20 -47
q41 -102 78 -242q37 -139 53 -249q3 -26 6 -51q14 21 30 41q67 87 169 190q101 101 188 170q22 17 40 30q-23 2 -50 6q-109 16 -247 53q-139 37 -240 78q-25 11 -47 21zM864 479q64 -5 88 6q15 7 11.5 20.5t-19.5 12.5q-26 -2 -80 -39zM192 722q-6 0 -11 -5q-9 -10 0 -23
q15 -22 74 -51q-29 59 -51 74q-6 5 -12 5zM512 -92q-18 0 -22 20q-5 29 19 97q-41 115 -135 279t-172 257q-70 13 -92 32q-16 14 -7 29q9 16 28 9q27 -10 74 -65q118 -22 307 -22t307 22q47 55 74 65q19 7 28 -9t-7 -29q-22 -19 -92 -32q-78 -92 -172.5 -256.5
t-135.5 -279.5q24 -68 19 -97q-3 -20 -21 -20zM512 17q-21 -61 -17 -88q3 -16 17 -16t17 16q4 27 -17 88zM210 560q15 -18 31 -40q66 -88 137 -213q72 -124 115 -227q11 -27 19 -48q8 21 19 48q43 102 115 227q71 125 137 213q18 23 31 40q-24 -4 -50 -8q-109 -13 -252 -13
t-252 13q-29 4 -50 8zM120 628q-8 0 -13 -8q-7 -12 6 -23q21 -17 84 -30q-43 50 -68 59q-5 2 -9 2zM904 628q-4 0 -9 -2q-25 -9 -68 -59q63 13 84 30q13 10 6 23q-5 8 -13 8zM628 -77q-13 0 -20 15q-12 26 -6 98q-69 100 -202.5 234.5t-232.5 203.5q-71 -5 -97 7
q-19 9 -15 26q5 18 26 16q28 -3 87 -44q121 11 303 60t291 101q31 65 55 82q16 11 29 -1q13 -13 1 -31q-17 -23 -81 -54q-52 -110 -100 -293q-49 -185 -59 -305q40 -59 43 -88q2 -21 -16 -26q-3 -1 -6 -1zM606 30q-4 -66 7 -90q7 -15 20 -11t12 20q-3 27 -39 81zM175 475
q20 -14 40 -30q86 -68 188 -170q101 -102 169 -190q16 -20 30 -41q2 22 6 51q16 110 53 249q37 140 78 242q11 27 20 46q-22 -10 -47 -20q-102 -41 -240 -78q-138 -38 -247 -53q-31 -4 -50 -6zM60 506q-3 -13 12 -20q24 -12 88 -7q-53 37 -80 39q-16 1 -20 -12zM832 722
q-6 0 -12 -5q-22 -15 -51 -74q58 29 74 50q9 14 0 24q-5 5 -11 5zM737 -31q-9 0 -18 10q-18 22 -31 93q-92 78 -256 173q-163 95 -276 136q-68 -24 -96 -19q-21 4 -21 22t21 22q28 5 96 -19q113 41 276 136q164 95 256 173q13 71 31 94q14 15 29.5 6t8.5 -29
q-10 -26 -64 -73q-22 -120 -22 -310q0 -191 21 -310q55 -46 65 -73q7 -20 -9 -29q-5 -3 -11 -3zM694 66q12 -64 29 -84q11 -13 23 -6t6 23q-9 25 -58 67zM163 384q23 -8 47 -19q101 -43 225 -115q124 -73 212 -139q22 -17 39 -32q-3 22 -7 51q-13 110 -13 254q0 145 13 254
q4 28 8 50q-18 -15 -40 -32q-88 -66 -212 -138t-225 -115q-29 -13 -47 -19zM71 402q-5 0 -10 -1q-16 -3 -16 -17t16 -17q26 -4 87 17q-50 18 -77 18zM737 794q-7 0 -14 -8q-17 -20 -29 -84q49 42 58 67q6 16 -6 23q-4 2 -9 2zM832 41q-7 0 -15 5q-24 17 -55 82
q-109 52 -291 101t-303 59q-59 -40 -87 -43q-21 -2 -25 16q-5 17 14 26q26 12 97 7q99 69 232.5 203.5t202.5 234.5q-6 72 6 98q9 19 26 14q18 -5 16 -25q-3 -29 -43 -89q10 -121 58.5 -304.5t100.5 -293.5q64 -31 81 -55q12 -17 -1 -30q-6 -6 -14 -6zM769 125
q29 -59 51 -74q13 -10 23 0q9 10 0 23q-16 22 -74 51zM175 293q23 -2 50 -6q109 -16 247 -53q139 -37 240 -78q26 -11 47 -21q-10 22 -20 47q-41 102 -78 242q-37 139 -53 249q-4 27 -6 51q-11 -17 -30 -41q-68 -88 -169 -189.5t-188 -170.5q-19 -15 -40 -30zM60 262
q4 -13 20 -12q27 2 80 39q-64 5 -88 -6q-15 -8 -12 -21zM628 840q-9 0 -15 -12q-11 -24 -7 -90q36 54 39 81q1 17 -12 20q-3 1 -5 1zM512 64h-1q-151 0 -263 20q-124 22 -147 61q-12 21 -5 65q6 40 27 98q41 110 119 245q75 129 146 214q80 95 124 95t123 -95
q71 -84 147 -214q77 -133 120.5 -250t20.5 -158q-23 -39 -148 -61q-111 -20 -263 -20zM511.5 854q-40.5 0 -116.5 -92q-71 -85 -146 -213q-78 -134 -118 -244q-44 -119 -22 -156q20 -36 141 -57q111 -20 262 -20t262 20q121 21 142 57q21 37 -23 156q-41 111 -118 244
q-75 128 -146 213q-77 92 -117.5 92zM276 23q-76 0 -99 23q-22 22 -23 91.5t13 155.5t40 179q39 146 86 248q53 114 96 126q43 11 144 -59q90 -63 196 -169q109 -108 181 -210t60 -148q-12 -44 -123.5 -96t-257.5 -91q-145 -38 -257 -48q-30 -2 -56 -2zM391 838
q-39 -11 -90 -121q-47 -102 -86 -247q-40 -148 -51 -263q-11 -125 19 -155q28 -29 149 -19q111 10 255 48q148 40 251 88q113 53 124 93q11 41 -62 145q-68 96 -177 205q-105 105 -195 168q-98 68 -137 58zM311 -37q-23 0 -36 7q-39 23 -61 148q-20 113 -20 266t20 265
q22 126 61 149q38 22 154 -20q104 -38 233 -112q133 -76 228.5 -155.5t95.5 -126.5q0 -24 -28 -59q-25 -31 -72 -71q-89 -75 -224 -152q-129 -75 -233 -112q-75 -27 -118 -27zM311 797q-21 0 -32 -6q-36 -21 -57 -143q-19 -112 -19 -264t19 -264q21 -122 57 -143
q35 -20 147 21q103 37 232 111q133 77 223 152q97 81 97 123t-97 124q-89 74 -223 151q-129 74 -232 111q-74 27 -115 27zM402 -79q-7 0 -13 2q-43 11 -96 125q-47 102 -86 248q-26 93 -40 179t-13 155.5t23 91.5q31 32 155 21q111 -10 256 -48q147 -39 258.5 -91
t123.5 -96.5t-64 -152.5q-68 -97 -178 -206q-106 -105 -196 -168q-86 -60 -130 -60zM276 737q-72 0 -93 -21q-30 -30 -19 -155q11 -115 51 -263q39 -146 86 -247q51 -110 90 -121q39 -10 137 58q89 62 194 167q110 109 177 205q74 104 63 145t-124 94q-104 48 -252 88
q-144 38 -255 48q-29 2 -55 2zM512 -94q-44 0 -124 95q-71 84 -146 214q-77 133 -120.5 250.5t-20.5 157.5q23 39 147 61q112 20 264 20t264 -20q124 -22 147 -61q12 -21 5 -65q-6 -40 -27 -98q-41 -110 -119 -245q-75 -129 -146 -214q-80 -95 -124 -95zM512 696
q-151 0 -262 -20q-121 -21 -141 -57q-21 -37 22 -156q41 -110 118 -244q75 -129 146 -213q77 -92 117.5 -92t116.5 92q71 85 146 213q78 134 118 244q43 119 22 156q-20 36 -141 57q-111 20 -262 20zM622 -79q-44 0 -131 60q-90 63 -196 169q-109 108 -181 210t-60 148
q12 44 123.5 96t257.5 91q145 38 257 48q124 10 155 -21q22 -22 23 -91.5t-13 -155.5t-40 -179q-39 -146 -86 -248q-53 -114 -96 -125q-6 -2 -13 -2zM62 506q-11 -41 62 -146q68 -95 177 -205q105 -104 195 -167q97 -68 137 -58q39 11 90 121q47 102 86 247q40 148 51 263
q11 125 -19 155q-28 29 -149 19q-111 -10 -255 -48q-148 -40 -251 -88q-113 -53 -124 -93zM713 -37q-42 0 -118 27q-104 38 -233 112q-133 76 -228.5 155.5t-95.5 126.5q0 24 28 59q25 31 72 71q89 75 224 152q129 75 233 112q116 42 154 20q39 -23 61 -148
q19 -112 19.5 -265t-19.5 -266q-22 -126 -61 -149q-13 -7 -36 -7zM713 797q-41 0 -115 -26q-103 -37 -232 -112q-133 -76 -223 -151q-97 -82 -97 -124t97 -124q89 -74 223 -151q129 -74 232 -111q112 -41 147 -21q36 21 57 143q19 113 19 265q0 151 -19 263q-21 122 -57 143
q-11 6 -32 6zM748 23q-25 0 -56 2q-111 10 -256 48q-147 39 -258.5 91t-123.5 96q-12 45 64 153q68 96 178 206q105 105 196 168q100 70 143 59q43 -12 96 -125q47 -103 86 -248q25 -94 39.5 -180t13.5 -155.5t-23 -91.5q-23 -23 -99 -23zM62 262q11 -40 124 -93
q105 -49 252 -88q144 -38 255 -48q120 -10 149 19q29 30 18 155q-11 116 -51 264q-39 145 -86 246q-51 110 -90 121q-39 10 -137 -58q-89 -62 -194 -167q-109 -109 -178 -205q-73 -105 -62 -146zM608 299q-9 0 -15.5 -2.5t-7.5 -6.5q-1 -1 -2 -1q-3 0 -24.5 8t-34.5 17
q-26 -19 -83 -30v3q50 14 75 33q-17 13 -29 35h-9q-22 -39 -58 -67l-2 2q43 42 63 92h-25q-8 0 -14 -2l-6 8q9 -1 15 -1h32q5 11 9 26l14 -10q1 -1 1 -2t-1 -1l-6 -2l-5 -11h56l8 11l13 -11q2 -2 2 -3.5t-3 -1.5h-78q-9 -16 -12 -22h62l7 8l12 -12q1 -1 1 -2t-3 -2
q-5 0 -8 -5q-9 -16 -21 -27q15 -9 36 -13q21 -5 40 -5v-3h1zM589 426l11 -10q2 -2 2 -3t-2 -1q-5 0 -11.5 -4t-16.5 -15l-3 1l14 20h-143q-1 -13 -5.5 -21t-9.5 -8q-3 0 -4.5 1.5t-1.5 4t4 5.5q7 5 10 12t5 19h2v-8h94q13 21 23 41l14 -8q1 -1 1 -1.5t-3 -0.5t-9.5 -6.5
t-20.5 -24.5h42zM582 473q1 -1 1 -2.5t-2.5 -0.5t-6.5 1h-12q-80 -8 -131 -8v2q108 11 141 20zM450 452q26 -9 26 -20q0 -4 -2 -6.5t-4.5 -2.5t-3.5 1l-1 4q-3 11 -17 22zM545 355h-52q11 -18 29 -31q15 14 23 31zM498 458q23 -16 23 -24q0 -4 -2.5 -7.5t-5.5 -3.5t-4 7
q0 12 -13 26z" />
    <glyph glyph-name="uniE640" unicode="&#xe640;" horiz-adv-x="1025" 
d="M731 32v512q0 15 -10.5 26t-25.5 11h-73q-15 0 -26 -11t-11 -26v-183h-292v183q0 15 -11 26t-26 11h-73q-15 0 -26 -11t-11 -26v-512q0 -15 11 -26t26 -11h73q15 0 26 11t11 26v183h292v-183q0 -15 11 -26t26 -11h73q15 0 25.5 11t10.5 26zM878 562v-548
q0 -68 -48.5 -116.5t-116.5 -48.5h-548q-68 0 -116.5 48.5t-48.5 116.5v548q0 68 48.5 116.5t116.5 48.5h548q68 0 116.5 -48.5t48.5 -116.5z" />
    <glyph glyph-name="uniE641" unicode="&#xe641;" 
d="M0 448q0 -91 35.5 -174t95.5 -143t143 -95.5t174 -35.5t174 35.5t143 95.5t95.5 143t35.5 174v0q0 91 -35.5 174t-95.5 143t-143 95.5t-174 35.5t-174 -35.5t-143 -95.5t-95.5 -143t-35.5 -174zM261 258q28 -22 75.5 -36.5t90.5 -14.5q130 0 130 84q0 23 -14 41.5
t-38.5 33t-91.5 44.5q-93 42 -122.5 77.5t-29.5 81.5q0 70 62 110.5t156 40.5q93 0 136 -20v-79q-56 35 -142 35q-57 0 -92.5 -21t-35.5 -60q0 -33 25 -54.5t107 -58.5q91 -39 127.5 -78t36.5 -88q0 -73 -59 -112.5t-164 -39.5q-37 0 -86 9.5t-71 22.5v82z" />
    <glyph glyph-name="uniE642" unicode="&#xe642;" 
d="M624.5 462q-22.5 9 -58 7t-82.5 -20q5 0 10 1h12q24 0 34.5 -9t13 -25t-1.5 -37t-10 -45q46 12 73 30.5t36.5 37.5t2.5 35t-29.5 25zM593.5 250.5q-14.5 5.5 -32 6t-33.5 -2.5q-1 -18 -1 -34q1 -17 2 -31q0 -14 1 -30q0 -14 -3 -23q19 0 35 5t29.5 14t21.5 22t11 30
q2 17 -7 27.5t-23.5 16zM896 742h-765q-24 0 -41.5 -17.5t-17.5 -41.5v-765q0 -25 17.5 -42t41.5 -17h765q25 0 42 17t17 42v765q0 24 -17 41.5t-42 17.5zM792 416q-5 -20 -18 -35.5t-29 -28t-33.5 -21.5t-33.5 -16q19 0 37 -8t29.5 -25t15 -42t-7.5 -56q-12 -35 -35 -61
t-52.5 -42.5t-64.5 -23.5t-71 -3t-70 18t-63 39q-26 22 -35.5 42.5t-8 33.5t10.5 16t20 -10q14 -16 32 -27t39 -19q-15 18 -26 52t-12 93q-3 58 4 90t20 47q-58 -31 -70.5 -67t18.5 -71q18 -20 17 -36t-13 -26t-31.5 -14t-39 0.5t-36 17.5t-22.5 37q-9 34 1.5 68.5
t39.5 66.5t76.5 60t111.5 49t113.5 28t85 3.5t58 -16t34.5 -30.5t13.5 -39.5t-4.5 -43.5z" />
    <glyph glyph-name="uniE643" unicode="&#xe643;" 
d="M889 344q-11 -5 -17 -8v-8q-9 1 -14 2q1 -11 1 -12q17 -27 27 -39q9 -12 8 -26q-1 -31 -4 -119q0 -5 1 -10q6 -26 -22 -26q-1 0 -19 1q-1 2 -1 3l8 8q12 8 13 27q6 104 -52 167q-17 19 -44 46q-9 9 -12 -3q-6 -26 -12 -61q-1 -6 -2 -19t-3 -19q-1 -9 -8 -15
q-16 -16 -32 -38.5t-24 -36t-24 -44.5q-2 0 -12 -3t-13 -2.5t-14 3.5q22 23 25 26l5 4l7 7q41 55 55 144q5 36 -8 52q-1 1 -1 3q2 8 0.5 30.5t4.5 29.5l1 9q-56 4 -65 5q-3 0 -17 -7q-1 0 -28 -12.5t-40 -18.5q-10 -4 -29 -5q-11 -1 -13 -9q-11 -38 0 -74q6 -20 3 -55
q-1 -5 -3 -24.5t-2 -30.5q-1 -5 5 -8q6 -5 6.5 -12t-5.5 -11q-12 -5 -11 -23v-2v-2q0 -15 -4 -18t-18 -1l-12 2l6 12q15 28 1 52q-7 11 -16.5 21.5t-22 23t-18.5 19.5q-12 13 -20 20q-11 11 -11 23t9 22q28 31 37 49q10 20 17 37q1 3 -2 8q-15 22 -24 33q-3 4 -10 5
q-42 3 -58 4q-17 0 -41 13q-8 5 -15 10t-16 13t-12 11t-14 15t-12 13q-13 14 -15 15q-16 11 -20 39q-3 18 -23 21q-19 4 -63 14q-3 1 -4 6q-2 24 20 33q20 8 37 5q5 -1 10 2q20 12 65 8h7q2 0 4 -1t2.5 -1.5t2 -2.5t1.5 -3t1 -5t1 -6q1 -1 3.5 -11.5t3 -12.5t3 -11t4 -12.5
t4 -11t5.5 -11.5t6.5 -9.5t8.5 -10.5q16 -18 35 -18q4 0 13.5 -0.5t16.5 -0.5t13 2q11 2 31 17q6 4 19 20q24 30 64 30q1 0 13 -0.5t14 -0.5q7 1 13 8q1 0 5 11.5t8.5 14.5t16.5 1q18 -2 23 16q0 1 1 4t1.5 5.5t1.5 4.5q4 7 10 7q7 0 11 -7q9 -21 13.5 -22.5t23.5 10.5
q15 9 26 13q18 5 23 -13q1 -3 3 -4.5t3 -2.5t4.5 -1.5t4.5 -0.5q12 -3 13 -6t-7 -12q-6 -8 -4 -16q4 -14 15 -38q3 -6 9 -10q36 -22 76 -77q6 -7 7 -18q1 -10 6 -78q1 -16 14 -23q2 -2 33 -20zM474 336h-2h-2l-6 -6q-9 -13 -15 -21q-17 -27 -8 -46q6 -11 15 -22q3 -3 33 -36
l2 1q-1 7 -17 130z" />
    <glyph glyph-name="uniE644" unicode="&#xe644;" horiz-adv-x="1456" 
d="M1446 856q-25 40 -72 40h-427q-24 0 -44 -12.5t-31 -33.5l-146 -245l-93 -190l-129 -248l-288 590h238l155 -317l93 190l-121 220q-11 21 -31 33.5t-44 12.5h-427q-47 0 -72 -40q-3 -5 -4.5 -10t-2.5 -8.5t0 -9.5l2 -9q0 -3 3 -9.5t4 -9t5 -10t5 -9.5l405 -842
q11 -22 31.5 -35t44.5 -13h1q24 0 44.5 12.5t31.5 33.5l149 288l94 190l179 342h238l-288 -590l-105 224l-93 -191l125 -263q11 -21 31.5 -33.5t44.5 -12.5h1q24 0 44.5 13t31.5 35l405 842q1 2 5 9.5t5 10t4 9t4 9.5l1 9q1 6 0 9.5t-2.5 8.5t-4.5 10z" />
    <glyph glyph-name="uniE645" unicode="&#xe645;" 
d="M780 540q43 11 58 29q12 8 -2 25q-4 5 -10 6q-22 22 -45 76q-6 26 -6 40q0 8 -16 20t-43.5 20t-53.5 2q-49 -12 -88.5 -44t-37.5 -76q2 -30 9 -48.5t12 -23t16 -10.5l-297 -27q-1 0 -3 -1t-5 -5.5t-1 -10.5q30 -117 17 -161q-16 -55 -27 -58q-6 4 -16 8t-38 5t-53 -13
q-27 -15 -40 -49.5t-5.5 -70t33.5 -51.5q30 -14 63 -12.5t57.5 20t20.5 43.5q-4 19 -15.5 31t-26 15.5t-27.5 2.5t-21 -6q-1 -2 -1.5 -4.5t5 -9t19.5 -11.5q15 -5 19.5 -18t-7 -23.5t-33.5 -9.5l-7 2q-5 2 -14.5 9.5t-14.5 18.5t-2 32t18 47q3 2 8.5 5t20.5 8t29 5t30 -9
t27 -29q12 -21 21 -62t14.5 -73.5t21.5 -59.5t43 -31q25 -3 43.5 3.5t35.5 20.5t23 17q6 1 18.5 2t27 -0.5t32 4.5t33.5 16.5t31 35.5t25 63l9 -2q0 -2 1 -5.5t4 -13.5t7.5 -17t12.5 -17.5t19 -14t26 -6.5t34 5q22 7 35 18.5t6.5 23t-37.5 15.5q-45 5 -45 11q-1 3 16 9
q3 0 8 -0.5t16.5 1t19.5 5.5t13.5 14t2.5 25q-9 43 -65 79.5t-97 19.5q-5 -2 -14 -6q-33 -14 -49 -21.5t-34 -20.5t-25 -28q-2 -4 -8 -7q-3 17 -3 37t6.5 48t30 56.5t62.5 50.5l4 -2q5 2 13 3.5t32.5 1t48 -6.5t53.5 -24.5t54 -47.5l9 8l-15 140q4 -1 11 -3t25 -4t31.5 0.5
t25.5 14t13 31.5q-3 -2 -27.5 -6t-58.5 -3t-46 14zM747 640q9 6 12 5q5 -4 9 -9q-9 -6 -14.5 -6.5t-6.5 2.5t0 8zM698 638q24 18 50 29l-22 -39v0l60 -46q-7 -25 -28 -18q-8 2 -14 10.5t-9.5 16.5t-12.5 16.5t-23 11.5q-15 9 -1 19zM283 281q27 39 52 52q-10 -40 -7 -81z
M348 374q-18 3 -19 25q0 2 -1 10.5t-1.5 14t0 15.5t3 16.5t7 15t12 12.5t19 9.5t28 5t38.5 -1.5l3 -1q-60 -54 -89 -121zM690 496q-16 4 -41.5 -1.5t-30.5 -11.5v3q0 2 2.5 7t7 9.5t15 9.5t24.5 8q10 2 43 7t51 8l-2 -67q1 0 -11.5 5.5t-29.5 12.5t-28 10z" />
    <glyph glyph-name="uniE7AE" unicode="&#xe7ae;" 
d="M512 746q117 0 216.5 -58t157.5 -157.5t58 -216.5t-58 -216.5t-157.5 -157.5t-216.5 -58v864zM512 746q-117 0 -216.5 -58t-157.5 -157.5t-58 -216.5t58 -216.5t157.5 -157.5t216.5 -58v864zM483 715q-17 37 12 82.5t87.5 72.5t112 20t70.5 -44zM483 715q17 -37 70.5 -44
t112 20t88 72.5t11.5 82.5zM337 545zM309 544.5q0 -11.5 8.5 -19.5t20 -8t19.5 8t8 19.5t-8 20t-19.5 8.5t-20 -8.5t-8.5 -20zM512 545zM484 544.5q0 -11.5 8 -19.5t19.5 -8t20 8t8.5 19.5t-8.5 20t-20 8.5t-19.5 -8.5t-8 -20zM686 545zM658 544.5q0 -11.5 8.5 -19.5t20 -8
t19.5 8t8 19.5t-8 20t-19.5 8.5t-20 -8.5t-8.5 -20zM236 429zM208 429.5q0 -11.5 8.5 -20t20 -8.5t19.5 8.5t8 20t-8 19.5t-19.5 8t-20 -8t-8.5 -19.5zM420 429zM392 429.5q0 -11.5 8 -20t20 -8.5t20 8.5t8 20t-8 19.5t-20 8t-20 -8t-8 -19.5zM604 429zM576 429.5
q0 -11.5 8 -20t19.5 -8.5t20 8.5t8.5 20t-8.5 19.5t-20 8t-19.5 -8t-8 -19.5zM788 429zM760 429.5q0 -11.5 8 -20t19.5 -8.5t20 8.5t8.5 20t-8.5 19.5t-20 8t-19.5 -8t-8 -19.5zM337 314zM309 314.5q0 -11.5 8.5 -20t20 -8.5t19.5 8.5t8 20t-8 19.5t-19.5 8t-20 -8
t-8.5 -19.5zM512 314zM484 314.5q0 -11.5 8 -20t19.5 -8.5t20 8.5t8.5 20t-8.5 19.5t-20 8t-19.5 -8t-8 -19.5zM686 314zM658 314.5q0 -11.5 8.5 -20t20 -8.5t19.5 8.5t8 20t-8 19.5t-19.5 8t-20 -8t-8.5 -19.5zM337 84zM309 83.5q0 -11.5 8.5 -19.5t20 -8t19.5 8t8 19.5
t-8 20t-19.5 8.5t-20 -8.5t-8.5 -20zM512 84zM484 83.5q0 -11.5 8 -19.5t19.5 -8t20 8t8.5 19.5t-8.5 20t-20 8.5t-19.5 -8.5t-8 -20zM686 84zM658 83.5q0 -11.5 8.5 -19.5t20 -8t19.5 8t8 19.5t-8 20t-19.5 8.5t-20 -8.5t-8.5 -20zM236 199zM208 199q0 -12 8.5 -20t20 -8
t19.5 8t8 20t-8 20t-19.5 8t-20 -8t-8.5 -20zM420 199zM392 199q0 -12 8 -20t20 -8t20 8t8 20t-8 20t-20 8t-20 -8t-8 -20zM604 199zM576 199q0 -12 8 -20t19.5 -8t20 8t8.5 20t-8.5 20t-20 8t-19.5 -8t-8 -20zM788 199zM760 199q0 -12 8 -20t19.5 -8t20 8t8.5 20t-8.5 20
t-20 8t-19.5 -8t-8 -20z" />
    <glyph glyph-name="uniE7B1" unicode="&#xe7b1;" 
d="M514 384zM26 384.5q0 -99.5 39 -189.5t104 -155.5t155.5 -104t190 -38.5t189.5 38.5t155.5 104t104 155.5t38.5 189.5t-38.5 189.5t-104 155.5t-155.5 104t-189.5 38.5t-190 -38.5t-155.5 -104t-104 -155.5t-39 -189.5zM514 384zM85 384.5q0 -116.5 57.5 -215.5
t156.5 -156.5t215.5 -57.5t215.5 57.5t156 156.5t57 215.5t-57 215.5t-156 156.5t-215.5 57.5t-215.5 -57.5t-156.5 -156.5t-57.5 -215.5zM536 374h304q2 -3 5 -9t8.5 -24.5t7 -38t-4 -47.5t-18.5 -55q-38 -72 -130 -85l-16 -2zM493 374h-304q-2 -3 -5 -9t-8.5 -24.5t-7 -38
t3.5 -47.5t19 -55q38 -72 130 -85l16 -2zM517 367l147 -267q-2 -3 -5.5 -8.5t-17 -19.5t-30 -24.5t-43.5 -19.5t-57 -10q-27 -1 -52 8t-41.5 21.5t-29 25.5t-18.5 21.5t-6 9.5zM536 395h304q2 3 5 9t8.5 24.5t7 38t-4 47.5t-18.5 54q-13 24 -32.5 42t-38.5 26.5t-36.5 13
t-28.5 5.5l-10 1zM493 395h-304q-2 3 -5 9t-8.5 24.5t-7 38t3.5 47.5t19 54q12 24 32.5 42t38 26.5t37 13t27.5 5.5t11 1zM517 402l147 267q-2 3 -5.5 8.5t-17 19t-30 24.5t-43.5 20t-57 10q-27 0 -52 -8.5t-41.5 -21t-29 -25.5t-18.5 -22l-6 -9z" />
  </font>
</defs>
</svg>
